<?xml version="1.0" encoding="UTF-8" standalone="no"?><svg viewBox="0 0 112 82" xmlns="http://www.w3.org/2000/svg" xmlns:xlink="http://www.w3.org/1999/xlink"><style>:root>svg{display:none}:root>svg:target{display:block}</style><svg viewBox="-1 -1 23.17 23.17" xml:space="preserve" id="about-1" xmlns="http://www.w3.org/2000/svg"><path d="M49.722 13.894c.502.487.778 1.144.778 1.82V16h-16V.5h.31c.724 0 1.408.274 1.91.761zM29.25.5v17.031c0 1.992 1.672 3.594 3.688 3.594H50.5v41.781c0 1.425-1.183 2.594-2.688 2.594H3.188C1.683 65.5.5 64.33.5 62.906V3.094C.5 1.669 1.683.5 3.188.5Z" stroke="#000" transform="matrix(.26458 0 0 .26458 3.836 1.852)" style="fill:none"/></svg><svg viewBox="-1 -1 23.17 23.17" xml:space="preserve" id="about-2" xmlns="http://www.w3.org/2000/svg"><path d="M49.709 14.906c.506.529.791 1.25.791 1.998v.346h-16V.5h.31c.712 0 1.392.29 1.897.817zM29.25.5v18.36c0 2.085 1.638 3.828 3.688 3.828H50.5v44.984c0 1.589-1.217 2.828-2.688 2.828H3.188C1.718 70.5.5 69.26.5 67.672V3.328C.5 1.74 1.717.5 3.188.5Zm7.406 53.25c1.173 0 2.094-.993 2.094-2.164v-1.11c0-1.17-.92-2.163-2.094-2.163H14.344c-1.173 0-2.094.993-2.094 2.164v1.109c0 1.17.92 2.164 2.094 2.164zm0-8.875c1.173 0 2.094-.993 2.094-2.164V41.6c0-1.17-.92-2.163-2.094-2.163H14.344c-1.173 0-2.094.993-2.094 2.164v1.109c0 1.17.92 2.164 2.094 2.164zm2.094-11.04v-1.108c0-1.171-.92-2.164-2.094-2.164H14.344c-1.173 0-2.094.993-2.094 2.164v1.109c0 1.17.92 2.164 2.094 2.164h22.312c1.173 0 2.094-.993 2.094-2.164z" stroke="#000" transform="matrix(.26458 0 0 .26458 3.836 1.19)" style="fill:none"/></svg><svg viewBox="-1 -1 23.17 23.17" xml:space="preserve" id="about-3" xmlns="http://www.w3.org/2000/svg"><path d="M17.5 58.189v-.5h-9c-4.362 0-8-4.02-8-9.111v-4.306h50v4.306c0 5.092-3.639 9.11-8 9.11h-9V67.8c0 5.092-3.639 9.11-8 9.11-4.362 0-8-4.018-8-9.11zM4.25 1.023h42.5c2.015 0 3.75 1.869 3.75 4.305v33.139H.5V5.328c0-2.436 1.735-4.305 3.75-4.305ZM29.188 67.8c0-2.208-1.596-4.104-3.688-4.104s-3.688 1.896-3.688 4.104c0 2.206 1.596 4.104 3.688 4.104s3.688-1.898 3.688-4.104z" stroke="#000" transform="matrix(.26458 0 0 .26458 3.836 .273)" style="fill:none"/></svg><svg viewBox="-1 -1 23.17 23.17" xml:space="preserve" id="about-4" xmlns="http://www.w3.org/2000/svg"><path d="M40.5.5c17.1 0 32.03 9.405 39.57 23.298.284.53.43 1.112.43 1.701 0 .59-.146 1.173-.43 1.702C72.535 41.089 57.6 50.5 40.5 50.5S8.47 41.095.93 27.202A3.603 3.603 0 0 1 .5 25.5c0-.59.147-1.173.43-1.702C8.464 9.911 23.4.5 40.5.5ZM28.983 41.825c3.411 2.152 7.419 3.3 11.517 3.3v-.5c2.66.001 5.293-.493 7.75-1.453 2.458-.961 4.691-2.37 6.572-4.146a19.08 19.08 0 0 0 4.39-6.206 18.197 18.197 0 0 0 1.538-7.32h.5c0-3.888-1.22-7.686-3.504-10.914-2.284-3.228-5.526-5.739-9.315-7.22A21.859 21.859 0 0 0 36.457 6.25c-4.02.755-7.716 2.62-10.62 5.362-2.903 2.743-4.884 6.24-5.687 10.053a18.64 18.64 0 0 0 1.184 11.354c1.574 3.589 4.237 6.652 7.649 8.805zm-1.136-18.901a7.55 7.55 0 0 0 4.217.932 7.408 7.408 0 0 0 4.558-1.979c1.225-1.157 1.976-2.695 2.107-4.338a6.571 6.571 0 0 0-.964-3.974 13.657 13.657 0 0 1 2.739-.315c2.718-.006 5.368.794 7.576 2.283 2.207 1.49 3.86 3.591 4.731 6.007a11.55 11.55 0 0 1 .135 7.467c-.784 2.442-2.36 4.596-4.513 6.154-2.153 1.56-4.773 2.443-7.49 2.524a13.554 13.554 0 0 1-7.647-2.073c-2.254-1.428-3.972-3.484-4.917-5.875a11.555 11.555 0 0 1-.532-6.813z" stroke="#000" transform="matrix(.26458 0 0 .26458 -.132 3.836)" style="fill:none"/></svg><svg fill="none" xml:space="preserve" viewBox="-1 -1 112 64" id="about-num-1" xmlns="http://www.w3.org/2000/svg"><path d="m-35.483 82.955.004.003c3.893 2.405 8.298 3.603 13.199 3.603 4.956 0 9.362-1.198 13.202-3.604l.001-.002c3.897-2.463 6.952-6.011 9.172-10.621 2.224-4.62 3.325-10.186 3.325-16.681 0-6.495-1.101-12.061-3.325-16.681-2.22-4.61-5.275-8.13-9.172-10.538-3.84-2.463-8.246-3.69-13.203-3.69-4.903 0-9.308 1.228-13.2 3.689-3.899 2.408-6.955 5.929-9.174 10.539-2.225 4.62-3.326 10.186-3.326 16.68 0 6.496 1.101 12.062 3.326 16.682 2.22 4.61 5.275 8.158 9.17 10.621zm18.87-10.736-.007.005c-1.585 1.215-3.464 1.829-5.66 1.829-2.135 0-4.017-.611-5.663-1.831-1.577-1.21-2.874-3.157-3.861-5.898-.927-2.729-1.4-6.28-1.4-10.671 0-4.392.473-7.942 1.4-10.671.987-2.74 2.284-4.688 3.861-5.898 1.646-1.22 3.528-1.831 5.663-1.831 2.196 0 4.075.613 5.66 1.829l.006.004c1.63 1.21 2.926 3.153 3.857 5.892l.003.008c.981 2.726 1.482 6.275 1.482 10.667 0 4.391-.501 7.94-1.482 10.667l-.003.008c-.931 2.738-2.227 4.682-3.857 5.891zm34.389 12.834v.5h14.608v-59.8H6.016v11.92h11.76z" stroke="#333" style="fill:none" transform="translate(48.48 -24.653)"/></svg><svg fill="none" xml:space="preserve" viewBox="-1 -1 112 64" id="about-num-2" xmlns="http://www.w3.org/2000/svg"><g style="fill:none"><g stroke-width="2" stroke="#221b1f" stroke-opacity=".996"><path vector-effect="non-scaling-stroke" d="m36.676 1.709-.54.71M11.966 5.169l-.79-.54M96.926 30.209l-.54-.79"/></g><path fill="#0a0609" fill-opacity=".996" d="m36.676 1.709-.54.71q-12.89-4.74-24.17 2.75l-.79-.54q11.84-8.32 25.5-2.92z"/><path fill="#3b3036" fill-opacity=".992" d="m97 30.79-.54-.79c6.69-10.01 3.96-22.55-7.88-26.88-11.74-4.29-25.31-1.57-33.54 8.32a.625.625 0 0 0 .14.92l8.9 5.8c.34.22.643.18.91-.12 4.247-4.827 9.593-6.377 16.04-4.65 8.21 2.2 5.32 11.44 1.07 15.47-8.04 7.613-16.097 15.24-24.17 22.88a1.33 1.33 0 0 0-.43 1v7.71c0 .347.173.52.52.52l5.496.108 14.412-.048-2.426.952-18.652-.002a.39.39 0 0 1-.39-.39l.06-9.41c0-.347.127-.637.38-.87a1734.207 1734.207 0 0 0 20.96-19.82c2.867-2.753 4.42-4.283 4.66-4.59 2.91-3.61 4.78-10.78-1.49-12.56-6.087-1.733-11.363-.14-15.83 4.78-.373.407-.79.46-1.25.16l-9.52-6.21c-.987-.64-1.08-1.39-.28-2.25 8.847-9.553 19.74-12.68 32.68-9.38C100.54 4.94 105.1 19.56 97 30.79Z" style="fill:#0a0609;fill-opacity:.996078" transform="translate(-.074 -.581)"/><path fill="#3b3036" fill-opacity=".992" d="M36.676 1.709q9.71 4.55 13.18 13.76c6.64 17.67 1.87 45.12-21.36 46.86-30.86 2.32-36.69-42.25-17.32-57.7l.79.54c-18.17 14.71-14.07 55.58 14.12 56.21 12.79.29 21.93-8.46 24.35-20.61 3.1-15.55.29-30.52-14.3-38.35Z"/><path fill="#3b3036" fill-opacity=".992" d="M27.326 49.849c-15.29 1.04-13.79-25.11-9.39-33.13 3.36-6.13 12.9-5.9 16.67-.25 5.16 7.75 5.61 32.49-7.28 33.38zm-9.32-30.86c-3.12 7.36-4.16 34.16 11.07 29.47 10.04-3.08 9.35-25.19 4.52-31.72-4.25-5.73-12.78-4.41-15.59 2.25Z"/><path fill="#0a0609" fill-opacity=".996" d="m96.46 30 .54.79c-4.29 6.26-11.51 12.27-16.9 17.1-.84.747-.7 1.09.42 1.03 7.86-.427 15.353-.28 22.48.44v12.42l-27.498.202 1.188-.949h.267l24.473-.023c.23 0 .416-.185.41-.41l-.08-10.02a.57.57 0 0 0-.56-.56l-23.66-.14c-.62-.007-.703-.22-.25-.64 6.4-5.98 14.15-12.16 19.17-19.24Z" style="fill:#0a0609;fill-opacity:.996078" transform="translate(-.074 -.581)"/></g></svg><svg fill="none" xml:space="preserve" viewBox="-1 -1 112 64" id="about-num-3" xmlns="http://www.w3.org/2000/svg"><g style="fill:none"><path d="m4.015 48.19.003.007c2.22 4.61 5.275 8.158 9.171 10.622 3.895 2.462 8.329 3.689 13.287 3.689 4.96 0 9.393-1.227 13.288-3.69 3.897-2.464 6.925-6.013 9.089-10.625 2.222-4.673 3.323-10.21 3.323-16.593 0-6.383-1.1-11.892-3.323-16.51-2.164-4.666-5.191-8.244-9.09-10.709C35.87 1.92 31.436.692 26.478.692c-4.96 0-9.393 1.227-13.288 3.69-3.898 2.464-6.953 6.041-9.172 10.707l-.001.003C1.85 19.709.776 25.217.776 31.6c0 6.383 1.074 11.918 3.239 16.59zm30.447-2.59-.004.006C32.532 48.55 29.886 50 26.477 50c-3.351 0-6-1.448-7.984-4.396-1.935-2.958-2.94-7.6-2.94-14.004 0-6.405 1.005-11.046 2.94-14.004 1.985-2.948 4.633-4.396 7.984-4.396 3.41 0 6.055 1.45 7.981 4.394l.004.005c1.989 2.957 3.023 7.596 3.023 14.001 0 6.405-1.034 11.044-3.023 14zM80.97 13.62 69.609 26.481l-.125.142V36.3H76.2c3.63 0 6.264.599 7.978 1.724 1.678 1.101 2.526 2.741 2.526 5 0 2.244-.9 3.964-2.719 5.213-1.849 1.213-4.427 1.847-7.785 1.847-3.029 0-6.002-.44-8.922-1.321-2.863-.936-5.387-2.228-7.578-3.871l-.476-.357-.27.53-5.292 10.416-.194.382.348.25c2.855 2.057 6.299 3.647 10.32 4.78l.008.002a48.37 48.37 0 0 0 12.392 1.613c5.37 0 9.929-.876 13.653-2.652 3.764-1.768 6.59-4.122 8.442-7.074l.003-.004c1.84-2.99 2.762-6.245 2.762-9.754 0-4.536-1.41-8.357-4.247-11.426-2.678-2.95-6.444-4.87-11.252-5.795L98.584 11.35l.124-.142V1.7h-42.16v11.92h.5z" stroke="#333" transform="translate(-.276 -.6)" style="fill:none"/></g></svg><svg fill="none" xml:space="preserve" viewBox="-1 -1 112 64" id="about-num-4" xmlns="http://www.w3.org/2000/svg"><g style="fill:none"><path d="m4.014 48.19.004.007c2.22 4.61 5.275 8.158 9.17 10.622 3.895 2.462 8.33 3.689 13.288 3.689 4.959 0 9.393-1.227 13.287-3.69 3.897-2.464 6.926-6.013 9.09-10.625 2.221-4.673 3.323-10.21 3.323-16.593 0-6.383-1.101-11.892-3.324-16.51-2.163-4.666-5.19-8.244-9.089-10.709C35.87 1.92 31.435.692 26.476.692c-4.959 0-9.393 1.227-13.287 3.69-3.898 2.464-6.953 6.041-9.173 10.707v.003C1.848 19.709.775 25.217.775 31.6c0 6.383 1.073 11.918 3.238 16.59zm30.447-2.59-.003.006C32.53 48.55 29.886 50 26.476 50c-3.35 0-5.999-1.448-7.983-4.396-1.935-2.958-2.941-7.6-2.941-14.004 0-6.405 1.006-11.046 2.94-14.004 1.985-2.948 4.633-4.396 7.984-4.396 3.41 0 6.055 1.45 7.982 4.394l.003.005c1.99 2.957 3.023 7.596 3.023 14.001 0 6.405-1.034 11.044-3.023 14zm77.671 3.552h.5V37.064h-9.576V26.06H89.204v11.004h-14.31l25.126-34.57.577-.794H85.084l-.15.202-27.72 37.296-.098.133v9.821h31.668V61.5h14.272V49.152Z" stroke="#333" transform="translate(-.276 -.6)" style="fill:none"/></g></svg><svg fill="none" viewBox="-1 -1 22 29" id="geo" xmlns="http://www.w3.org/2000/svg"><path d="M8.57 26.44C1.343 15.337 0 14.198 0 10.118 0 4.53 4.277 0 9.553 0c5.275 0 9.552 4.53 9.552 10.119 0 4.08-1.342 5.219-8.57 16.32a1.157 1.157 0 0 1-1.964 0zm.983-12.105c2.198 0 3.98-1.888 3.98-4.216 0-2.329-1.782-4.216-3.98-4.216-2.199 0-3.98 1.887-3.98 4.216 0 2.328 1.781 4.216 3.98 4.216z" fill="#84786C"/></svg><svg fill="none" viewBox="-1 -1 51 56" id="hero-title-icon" xmlns="http://www.w3.org/2000/svg"><path d="M47.288 29.768c1.047-3.219 1.618-8.032-.44-10.946-2.075-2.94-6.5-3.284-9.548-2.912-3.563.434-6.673 2.605-9.735 4.548a137.54 137.54 0 0 0-5.198 3.478c.233-2.742.456-5.485.593-8.23.178-3.578.068-7.317-1.318-10.614-1.466-3.488-4.29-4.724-7.566-4.77-3.207-.047-5.601 1.541-7.684 4.224-9.554 12.305-4.244 29.588-2.656 44.23-.073.015-.145.028-.217.044-1.158.237-.926.82-.071 1.285.137.074.285.137.44.193.055.608.105 1.213.143 1.811.097 1.521 6.025 1.522 5.955.424a77.213 77.213 0 0 0-.209-2.55c7.498-1.455 15.245-2.604 22.423-5.405 6.473-2.526 12.636-7.275 15.088-14.81Zm-8.75 5.031a21.388 21.388 0 0 1-1.372 1.716 171.955 171.955 0 0 0-14.984 4.147c2.882-2.171 5.908-4.105 8.907-6.089 2.476-1.637 4.936-3.32 7.251-5.237 1.012-.837 2.802-2.047 3.765-3.523a5.917 5.917 0 0 1-.024.209c-.414 3.246-1.728 6.242-3.543 8.777Zm-8.191-11.536c2.804-1.88 5.749-4.097 8.868-5.255 1.978-.734 2.712 2.016 2.906 4.602-1.277-.722-4.175-.378-4.925-.104-5.066 1.849-9.99 4.085-14.835 6.533a146.681 146.681 0 0 1 7.986-5.776ZM7.702 15.537a4.54 4.54 0 0 0 .422-.134 38.2 38.2 0 0 1 5.85-1.721c-1.39 2.53-3.37 4.609-5.192 6.754l-1.931 2.273c.073-2.404.33-4.798.85-7.172Zm7.13 8.424-3.587 1.195 3.859-4.54c.637-.75 1.276-1.491 1.895-2.247-.14 1.844-.341 3.688-.538 5.501-.8-.008-1.455.032-1.628.09ZM7.51 29.378l4.45-1.482-4.37 6.382c-.21-1.591-.392-3.183-.527-4.772.15-.036.3-.078.447-.128Zm9.52.355c1.125.295 2.883.224 3.948.014a256.998 256.998 0 0 0-6.238 3.33l2.29-3.344ZM13.423 3.925c.356-.367.782-.658 1.178-.97l.17.206c.22.812.986 1.656 1.284 2.504.262.743.455 1.532.607 2.312.203 1.047.332 2.12.414 3.207-.375-.016-.653-.02-.727-.014-2.636.175-5.236.59-7.798 1.222.034-.103.063-.206.097-.308 1.037-3.087 2.607-5.928 4.775-8.16ZM23.137 44.6c-4.484 1.244-9.055 2.147-13.619 3.034-.3-2.463-.681-4.939-1.062-7.42.636-.002 1.145-.056 1.33-.164 8.144-4.683 16.318-9.347 24.816-13.132-.94.823-1.963 1.523-2.61 2.04-2.344 1.878-4.816 3.537-7.297 5.17-4.959 3.263-9.961 6.451-14.208 10.867-.654.679 1.484 1.157 1.665 1.195 1.178.248 2.59.357 3.738-.107 5.597-2.26 11.277-4.2 17.03-5.833-2.985 2.044-6.359 3.4-9.783 4.35Z" fill="#F9F2EB"/></svg><svg fill="none" viewBox="-1 -1 27 28" id="inst" xmlns="http://www.w3.org/2000/svg"><path d="M12.302 6.254c-3.49 0-6.306 2.939-6.306 6.582s2.816 6.582 6.306 6.582 6.305-2.939 6.305-6.582-2.815-6.582-6.305-6.582zm0 10.861c-2.256 0-4.1-1.919-4.1-4.279s1.839-4.28 4.1-4.28c2.26 0 4.099 1.92 4.099 4.28 0 2.36-1.844 4.28-4.1 4.28zm8.033-11.13c0 .853-.658 1.535-1.47 1.535-.818 0-1.471-.687-1.471-1.535 0-.848.659-1.535 1.47-1.535.813 0 1.471.687 1.471 1.535zm4.176 1.558c-.093-2.057-.543-3.878-1.986-5.38C21.087.664 19.342.194 17.372.09c-2.03-.12-8.116-.12-10.146 0-1.965.098-3.71.567-5.153 2.068C.63 3.66.185 5.481.086 7.538c-.115 2.119-.115 8.472 0 10.591.094 2.057.544 3.878 1.987 5.38 1.443 1.5 3.183 1.97 5.153 2.073 2.03.12 8.116.12 10.146 0 1.97-.097 3.715-.567 5.153-2.074 1.438-1.5 1.888-3.322 1.986-5.379.116-2.12.116-8.466 0-10.586zm-2.623 12.86c-.428 1.123-1.256 1.988-2.337 2.44-1.62.671-5.46.516-7.25.516-1.788 0-5.635.15-7.248-.515-1.076-.447-1.905-1.312-2.338-2.44-.642-1.69-.494-5.7-.494-7.568 0-1.867-.143-5.883.494-7.567.428-1.123 1.257-1.988 2.338-2.44 1.618-.67 5.46-.516 7.249-.516 1.789 0 5.635-.15 7.249.515 1.075.447 1.904 1.312 2.337 2.44.642 1.69.494 5.7.494 7.568 0 1.868.148 5.883-.494 7.568z" fill="#84786C"/></svg><svg fill="none" viewBox="-1 -1 26 20" id="mail" xmlns="http://www.w3.org/2000/svg"><path d="M23.154 5.811a.278.278 0 0 1 .447.215v9.372c0 1.215-.991 2.2-2.213 2.2H2.213A2.207 2.207 0 0 1 0 15.398V6.031c0-.23.263-.357.447-.215 1.033.797 2.402 1.81 7.103 5.206.973.705 2.614 2.19 4.25 2.181 1.646.014 3.32-1.503 4.255-2.181 4.702-3.396 6.066-4.414 7.099-5.211zM11.8 11.732c1.07.018 2.61-1.338 3.384-1.897 6.117-4.414 6.582-4.799 7.993-5.898.267-.207.424-.527.424-.867V2.2A2.207 2.207 0 0 0 21.388 0H2.213A2.207 2.207 0 0 0 0 2.2v.87c0 .34.157.656.424.867C1.834 5.032 2.3 5.42 8.417 9.835c.774.559 2.314 1.915 3.383 1.897z" fill="#84786C"/></svg><svg fill="none" viewBox="-1 -1 29 19" id="vk" xmlns="http://www.w3.org/2000/svg"><path d="M25.677 1.105c.18-.637 0-1.105-.869-1.105h-2.873c-.731 0-1.068.402-1.248.85 0 0-1.464 3.723-3.532 6.136-.668.698-.975.922-1.341.922-.18 0-.459-.224-.459-.86V1.104c0-.764-.205-1.105-.81-1.105H10.03a.706.706 0 0 0-.732.687c0 .723 1.034.892 1.141 2.928v4.42c0 .968-.165 1.146-.531 1.146-.976 0-3.346-3.738-4.751-8.015C4.873.336 4.595 0 3.858 0H.985C.165 0 0 .402 0 .85c0 .795.976 4.741 4.541 9.955 2.376 3.56 5.722 5.49 8.766 5.49 1.829 0 2.053-.428 2.053-1.167 0-3.401-.166-3.722.751-3.722.425 0 1.156.224 2.863 1.94 1.952 2.037 2.274 2.948 3.366 2.948h2.873c.82 0 1.234-.427.995-1.273-.546-1.777-4.238-5.433-4.404-5.677-.425-.57-.303-.825 0-1.334.005-.005 3.512-5.158 3.873-6.905z" fill="#84786C"/></svg></svg>