<?xml version="1.0" encoding="UTF-8" standalone="no"?>
<svg
   width="110"
   height="62"
   viewBox="0 0 110 62"
   fill="none"
   version="1.1"
   id="svg12"
   sodipodi:docname="about-num-1.svg"
   xml:space="preserve"
   inkscape:version="1.2.2 (732a01da63, 2022-12-09)"
   xmlns:inkscape="http://www.inkscape.org/namespaces/inkscape"
   xmlns:sodipodi="http://sodipodi.sourceforge.net/DTD/sodipodi-0.dtd"
   xmlns="http://www.w3.org/2000/svg"
   xmlns:svg="http://www.w3.org/2000/svg"><defs
     id="defs16" /><sodipodi:namedview
     id="namedview14"
     pagecolor="#ffffff"
     bordercolor="#000000"
     borderopacity="0.25"
     inkscape:showpageshadow="2"
     inkscape:pageopacity="0.0"
     inkscape:pagecheckerboard="0"
     inkscape:deskcolor="#d1d1d1"
     showgrid="false"
     inkscape:zoom="6.6171875"
     inkscape:cx="46.621015"
     inkscape:cy="16.92562"
     inkscape:window-width="1920"
     inkscape:window-height="1027"
     inkscape:window-x="-8"
     inkscape:window-y="-8"
     inkscape:window-maximized="1"
     inkscape:current-layer="g201" /><g
     style="fill:none"
     id="g201"
     transform="translate(-0.276031,-0.6000085)"><g
       style="fill:none"
       id="g306"
       transform="translate(48.755994,-24.052884)" /><g
       style="fill:none"
       id="g395"
       transform="translate(3e-5)"><path
         d="m 4.01435,48.1903 h -5e-5 l 0.0032,0.0066 c 2.21971,4.6102 5.27507,8.1579 9.1713,10.6217 3.8944,2.4627 8.3286,3.6894 13.2872,3.6894 4.9586,0 9.3928,-1.2267 13.2872,-3.6894 3.8973,-2.4644 6.9254,-6.0135 9.0891,-10.6255 C 51.0745,43.52 52.176,37.9838 52.176,31.6 52.176,25.2172 51.0749,19.7085 48.8521,15.0905 46.6889,10.4239 43.6613,6.84639 39.7632,4.38142 35.8688,1.91874 31.4346,0.692017 26.476,0.692017 21.5174,0.692017 17.0832,1.91874 13.1888,4.38142 9.291,6.84618 6.23567,10.4232 4.01646,15.0893 L 4.01534,15.0917 C 1.84909,19.7092 0.776001,25.2173 0.776001,31.6 c 0,6.383 1.073169,11.918 3.238349,16.5903 z M 34.4611,45.6009 v 0 l -0.0034,0.0053 C 32.531,48.5497 29.8859,50 26.476,50 23.1255,50 20.4773,48.5523 18.4926,45.6036 16.5577,42.6456 15.552,38.0049 15.552,31.6 c 0,-6.4048 1.0057,-11.0455 2.9406,-14.0035 1.9847,-2.9487 4.6329,-4.3965 7.9834,-4.3965 3.4099,0 6.055,1.4504 7.9817,4.3938 l -1e-4,10e-5 0.0035,0.0052 c 1.989,2.9566 3.0229,7.5958 3.0229,14.0009 0,6.4052 -1.0339,11.0443 -3.0229,14.0009 z m 77.6709,3.5511 h 0.5 v -0.5 -11.088 -0.5 h -0.5 -9.076 V 26.56 26.06 h -0.5 -12.8523 -0.5 v 0.5 10.504 H 74.8933 L 100.02,2.49399 100.597,1.70001 h -0.9813 -14.28 -0.2513 l -0.15,0.20174 -27.72,37.29605 -0.0987,0.1328 v 0.1654 9.156 0.5 h 0.5 31.168 V 61 61.5 h 0.5 13.2723 0.5 V 61 49.152 Z"
         stroke="#333333"
         id="path386" /></g></g></svg>
