<?xml version="1.0" encoding="UTF-8" standalone="no"?>
<svg
   width="110"
   height="62"
   viewBox="0 0 110 62"
   fill="none"
   version="1.1"
   id="svg12"
   sodipodi:docname="about-num-1.svg"
   xml:space="preserve"
   inkscape:version="1.2.2 (732a01da63, 2022-12-09)"
   xmlns:inkscape="http://www.inkscape.org/namespaces/inkscape"
   xmlns:sodipodi="http://sodipodi.sourceforge.net/DTD/sodipodi-0.dtd"
   xmlns="http://www.w3.org/2000/svg"
   xmlns:svg="http://www.w3.org/2000/svg"><defs
     id="defs16" /><sodipodi:namedview
     id="namedview14"
     pagecolor="#ffffff"
     bordercolor="#000000"
     borderopacity="0.25"
     inkscape:showpageshadow="2"
     inkscape:pageopacity="0.0"
     inkscape:pagecheckerboard="0"
     inkscape:deskcolor="#d1d1d1"
     showgrid="false"
     inkscape:zoom="6.6171875"
     inkscape:cx="46.621015"
     inkscape:cy="16.92562"
     inkscape:window-width="1920"
     inkscape:window-height="1027"
     inkscape:window-x="-8"
     inkscape:window-y="-8"
     inkscape:window-maximized="1"
     inkscape:current-layer="g201" /><g
     style="fill:none"
     id="g201"
     transform="translate(-0.276031,-0.6000085)"><g
       style="fill:none"
       id="g306"
       transform="translate(48.755994,-24.052884)" /><g
       style="fill:none"
       id="g377"
       transform="translate(-4.28e-4)"><path
         d="m 4.0148,48.1903 h -5e-5 l 0.00321,0.0066 c 2.21971,4.6102 5.27507,8.1579 9.17124,10.6217 3.8945,2.4627 8.3287,3.6894 13.2873,3.6894 4.9586,0 9.3927,-1.2267 13.2872,-3.6894 3.8972,-2.4644 6.9253,-6.0135 9.0891,-10.6255 C 51.075,43.52 52.1765,37.9838 52.1765,31.6 52.1765,25.2172 51.0753,19.7085 48.8526,15.0905 46.6894,10.4239 43.6618,6.84639 39.7637,4.38142 35.8692,1.91874 31.4351,0.692017 26.4765,0.692017 21.5179,0.692017 17.0837,1.91874 13.1892,4.38142 9.29146,6.84618 6.23613,10.4232 4.01692,15.0893 L 4.0158,15.0917 C 1.84955,19.7092 0.776459,25.2173 0.776459,31.6 c 0,6.383 1.073171,11.918 3.238341,16.5903 z m 30.4468,-2.5894 v 0 l -0.0035,0.0053 C 32.5315,48.5497 29.8863,50 26.4765,50 23.126,50 20.4778,48.5523 18.4931,45.6036 16.5582,42.6456 15.5525,38.0049 15.5525,31.6 c 0,-6.4048 1.0056,-11.0455 2.9405,-14.0035 1.9847,-2.9487 4.633,-4.3965 7.9835,-4.3965 3.4098,0 6.055,1.4504 7.9816,4.3938 v 10e-5 l 0.0035,0.0052 c 1.989,2.9566 3.0229,7.5958 3.0229,14.0009 0,6.4052 -1.0339,11.0443 -3.0229,14.0009 z M 80.971,13.62 69.6091,26.481 69.4839,26.6228 v 0.1892 8.988 0.5 h 0.5 6.216 c 3.6292,0 6.2642,0.5985 7.9786,1.724 1.6776,1.1014 2.5254,2.741 2.5254,5 0,2.2441 -0.8995,3.9637 -2.7186,5.2128 -1.8489,1.2134 -4.4272,1.8472 -7.7854,1.8472 -3.0289,0 -6.0024,-0.4402 -8.9221,-1.321 -2.8626,-0.9365 -5.387,-2.2278 -7.5779,-3.871 l -0.4762,-0.3571 -0.2696,0.5306 -5.292,10.416 -0.194,0.382 0.3476,0.2503 c 2.8557,2.0561 6.2992,3.6467 10.3206,4.7795 v 10e-5 l 0.008,0.0021 c 4.0734,1.0749 8.2042,1.6125 12.3916,1.6125 5.3709,0 9.9287,-0.8758 13.6535,-2.6519 3.7638,-1.768 6.5893,-4.1217 8.442,-7.0743 l 0.0023,-0.0037 c 1.8403,-2.9908 2.7623,-6.2455 2.7623,-9.7541 0,-4.5361 -1.4107,-8.3566 -4.2475,-11.4258 C 94.471,28.6484 90.7053,26.7273 85.8971,25.8028 L 98.5836,11.3499 98.7079,11.2083 V 11.02 2.20001 v -0.5 h -0.5 -41.16 -0.5 v 0.5 10.91999 0.5 h 0.5 z"
         stroke="#333333"
         id="path368" /></g></g></svg>
