<?xml version="1.0" encoding="UTF-8" standalone="no"?>
<!-- Created with Inkscape (http://www.inkscape.org/) -->

<svg
   width="21.166666mm"
   height="21.166666mm"
   viewBox="0 0 21.166666 21.166667"
   version="1.1"
   id="svg5"
   xml:space="preserve"
   inkscape:version="1.2.2 (732a01da63, 2022-12-09)"
   xmlns:inkscape="http://www.inkscape.org/namespaces/inkscape"
   xmlns:sodipodi="http://sodipodi.sourceforge.net/DTD/sodipodi-0.dtd"
   xmlns="http://www.w3.org/2000/svg"
   xmlns:svg="http://www.w3.org/2000/svg"><sodipodi:namedview
     id="namedview7"
     pagecolor="#ffffff"
     bordercolor="#000000"
     borderopacity="0.25"
     inkscape:showpageshadow="2"
     inkscape:pageopacity="0.0"
     inkscape:pagecheckerboard="0"
     inkscape:deskcolor="#d1d1d1"
     inkscape:document-units="mm"
     showgrid="false"
     inkscape:zoom="0.75455247"
     inkscape:cx="-73.553533"
     inkscape:cy="39.758667"
     inkscape:window-width="1920"
     inkscape:window-height="1027"
     inkscape:window-x="-8"
     inkscape:window-y="-8"
     inkscape:window-maximized="1"
     inkscape:current-layer="layer1" /><defs
     id="defs2" /><g
     inkscape:label="Слой 1"
     inkscape:groupmode="layer"
     id="layer1"
     transform="translate(-32.414243,-22.70767)"><g
       style="fill:none"
       id="g18"
       transform="matrix(0.26458333,0,0,0.26458333,32.281951,26.544128)"
       inkscape:label="g18"><path
         d="m 40.5,0.5 c 17.1004,0 32.0305,9.4047 39.5707,23.2984 0.2828,0.5289 0.4293,1.1114 0.4293,1.7009 0,0.5896 -0.1465,1.1722 -0.4295,1.7013 C 72.5345,41.0888 57.6003,50.5 40.5,50.5 23.3996,50.5 8.46965,41.0954 0.929419,27.2018 0.646541,26.6728 0.5,26.0902 0.5,25.5007 0.5,24.9111 0.646545,24.3285 0.929432,23.7995 8.46546,9.91123 23.3997,0.5 40.5,0.5 Z M 28.9828,41.8247 c 3.4114,2.1527 7.4192,3.3003 11.517,3.3003 l 2e-4,-0.5 c 2.6596,0.0012 5.2935,-0.4926 7.7509,-1.4533 2.4574,-0.9607 4.6903,-2.3694 6.5709,-4.1456 1.8807,-1.7761 3.3722,-3.8849 4.3894,-6.2058 1.0172,-2.3209 1.5401,-4.8084 1.5388,-7.3203 h 0.5 c 0,-10e-5 0,-2e-4 0,-3e-4 0,-3.8879 -1.2209,-7.686 -3.5045,-10.9138 C 55.4621,11.3585 52.2197,8.84711 48.4315,7.36517 44.6435,5.88329 40.4767,5.49594 36.4571,6.25108 32.4374,7.00623 28.7413,8.8708 25.8377,11.6131 c -2.9038,2.7425 -4.885,6.2403 -5.6879,10.0527 -0.803,3.8127 -0.3906,7.7643 1.1837,11.3538 1.5741,3.5891 4.2377,6.6521 7.6493,8.8051 z M 27.8474,22.924 c 1.2686,0.7098 2.74,1.0371 4.2169,0.9316 1.7162,-0.1226 3.3339,-0.8222 4.5581,-1.9785 1.225,-1.1568 1.9752,-2.6951 2.1068,-4.3379 0.1117,-1.3947 -0.2294,-2.7799 -0.9644,-3.9744 0.8977,-0.1967 1.8159,-0.3024 2.739,-0.3148 2.7185,-0.0055 5.368,0.7941 7.5757,2.283 2.208,1.4891 3.861,3.5912 4.732,6.0069 0.8708,2.4152 0.9176,5.0263 0.1342,7.4676 -0.7835,2.4418 -2.3598,4.5951 -4.5125,6.1538 -2.1531,1.5589 -4.773,2.443 -7.4911,2.5241 -2.7182,0.0811 -5.3926,-0.6451 -7.6465,-2.0731 -2.2536,-1.4279 -3.9713,-3.4839 -4.9168,-5.8748 -0.8628,-2.182 -1.0443,-4.5458 -0.5314,-6.8135 z"
         stroke="#000000"
         id="path9" /></g></g></svg>
