<?xml version="1.0" encoding="UTF-8" standalone="no"?>
<svg
   width="110"
   height="62"
   viewBox="0 0 110 62"
   fill="none"
   version="1.1"
   id="svg12"
   sodipodi:docname="about-num-2.svg"
   xml:space="preserve"
   inkscape:version="1.2.2 (732a01da63, 2022-12-09)"
   xmlns:inkscape="http://www.inkscape.org/namespaces/inkscape"
   xmlns:sodipodi="http://sodipodi.sourceforge.net/DTD/sodipodi-0.dtd"
   xmlns="http://www.w3.org/2000/svg"
   xmlns:svg="http://www.w3.org/2000/svg"><defs
     id="defs16" /><sodipodi:namedview
     id="namedview14"
     pagecolor="#ffffff"
     bordercolor="#000000"
     borderopacity="0.25"
     inkscape:showpageshadow="2"
     inkscape:pageopacity="0.0"
     inkscape:pagecheckerboard="0"
     inkscape:deskcolor="#d1d1d1"
     showgrid="false"
     inkscape:zoom="128"
     inkscape:cx="74.292969"
     inkscape:cy="60.929687"
     inkscape:window-width="1920"
     inkscape:window-height="1027"
     inkscape:window-x="-8"
     inkscape:window-y="-8"
     inkscape:window-maximized="1"
     inkscape:current-layer="g350"
     showguides="true"><sodipodi:guide
       position="76.582979,0.59219549"
       orientation="0,-1"
       id="guide6328"
       inkscape:locked="false" /><sodipodi:guide
       position="76.882784,1.547774"
       orientation="0,-1"
       id="guide6330"
       inkscape:locked="false" /></sodipodi:namedview><g
     style="fill:none"
     id="g201"
     transform="translate(-0.276031,-0.6000085)"><g
       style="fill:none"
       id="g306"
       transform="translate(48.755994,-24.052884)" /><g
       id="g350"
       transform="translate(0.20227464,0.01905185)"><g
         stroke-width="2"
         fill="none"
         stroke-linecap="butt"
         id="g322"><path
           stroke="#221b1f"
           stroke-opacity="0.996"
           vector-effect="non-scaling-stroke"
           d="M 36.75,2.29 36.21,3"
           id="path314" /><path
           stroke="#221b1f"
           stroke-opacity="0.996"
           vector-effect="non-scaling-stroke"
           d="M 12.04,5.75 11.25,5.21"
           id="path316" /><path
           stroke="#221b1f"
           stroke-opacity="0.996"
           vector-effect="non-scaling-stroke"
           d="M 97,30.79 96.46,30"
           id="path318" /></g><path
         fill="#0a0609"
         fill-opacity="0.996"
         d="M 36.75,2.29 36.21,3 Q 23.32,-1.74 12.04,5.75 L 11.25,5.21 q 11.84,-8.32 25.5,-2.92 z"
         id="path324" /><path
         fill="#3b3036"
         fill-opacity="0.992"
         d="M 97,30.79 96.46,30 C 103.15,19.99 100.42,7.45 88.58,3.12 76.84,-1.17 63.27,1.55 55.04,11.44 c -0.235807,0.291593 -0.170537,0.720512 0.14,0.92 l 8.9,5.8 c 0.34,0.22 0.643333,0.18 0.91,-0.12 4.246667,-4.826667 9.593333,-6.376667 16.04,-4.65 8.21,2.2 5.32,11.44 1.07,15.47 -8.04,7.613333 -16.096667,15.24 -24.17,22.88 -0.286667,0.273333 -0.43,0.606667 -0.43,1 v 7.71 c 0,0.346667 0.173333,0.52 0.52,0.52 l 5.496234,0.10778 14.411522,-0.04782 -2.42611,0.952137 L 56.85,61.98 c -0.215391,0 -0.39,-0.174609 -0.39,-0.39 l 0.06,-9.41 c 0,-0.346667 0.126667,-0.636667 0.38,-0.87 7.046667,-6.553333 14.033333,-13.16 20.96,-19.82 2.866667,-2.753333 4.42,-4.283333 4.66,-4.59 2.91,-3.61 4.78,-10.78 -1.49,-12.56 -6.086667,-1.733333 -11.363333,-0.14 -15.83,4.78 -0.373333,0.406667 -0.79,0.46 -1.25,0.16 L 54.43,13.07 C 53.443333,12.43 53.35,11.68 54.15,10.82 62.996667,1.2666667 73.89,-1.86 86.83,1.44 100.54,4.94 105.1,19.56 97,30.79 Z"
         id="path326"
         sodipodi:nodetypes="ccccccccccssccccccccccccccccc"
         style="fill:#0a0609;fill-opacity:0.996078" /><path
         fill="#3b3036"
         fill-opacity="0.992"
         d="m 36.75,2.29 q 9.71,4.55 13.18,13.76 C 56.57,33.72 51.8,61.17 28.57,62.91 -2.29,65.23 -8.12,20.66 11.25,5.21 l 0.79,0.54 C -6.13,20.46 -2.03,61.33 26.16,61.96 38.95,62.25 48.09,53.5 50.51,41.35 53.61,25.8 50.8,10.83 36.21,3 Z"
         id="path328" /><path
         fill="#3b3036"
         fill-opacity="0.992"
         d="M 27.4,50.43 C 12.11,51.47 13.61,25.32 18.01,17.3 c 3.36,-6.13 12.9,-5.9 16.67,-0.25 5.16,7.75 5.61,32.49 -7.28,33.38 z M 18.08,19.57 C 14.96,26.93 13.92,53.73 29.15,49.04 39.19,45.96 38.5,23.85 33.67,17.32 29.42,11.59 20.89,12.91 18.08,19.57 Z"
         id="path330" /><path
         fill="#0a0609"
         fill-opacity="0.996"
         d="M 96.46,30 97,30.79 c -4.29,6.26 -11.51,12.27 -16.9,17.1 -0.84,0.746667 -0.7,1.09 0.42,1.03 7.86,-0.426667 15.353333,-0.28 22.48,0.44 v 12.42 l -27.498354,0.202097 1.18792,-0.948914 0.266974,0 L 101.43,61.01 c 0.2304,-6.8e-5 0.41562,-0.185288 0.41,-0.41 l -0.08,-10.02 c -0.005,-0.30704 -0.25296,-0.554659 -0.56,-0.56 L 77.54,49.88 C 76.92,49.873333 76.836667,49.66 77.29,49.24 83.69,43.26 91.44,37.08 96.46,30 Z"
         id="path439"
         sodipodi:nodetypes="cccccccccccccccc"
         style="fill:#0a0609;fill-opacity:0.996078" /></g></g></svg>
