<?xml version="1.0" encoding="UTF-8" standalone="no"?>
<!-- Created with Inkscape (http://www.inkscape.org/) -->

<svg
   width="21.166666mm"
   height="21.166666mm"
   viewBox="0 0 21.166666 21.166667"
   version="1.1"
   id="svg5"
   xml:space="preserve"
   inkscape:version="1.2.2 (732a01da63, 2022-12-09)"
   xmlns:inkscape="http://www.inkscape.org/namespaces/inkscape"
   xmlns:sodipodi="http://sodipodi.sourceforge.net/DTD/sodipodi-0.dtd"
   xmlns="http://www.w3.org/2000/svg"
   xmlns:svg="http://www.w3.org/2000/svg"><sodipodi:namedview
     id="namedview7"
     pagecolor="#ffffff"
     bordercolor="#000000"
     borderopacity="0.25"
     inkscape:showpageshadow="2"
     inkscape:pageopacity="0.0"
     inkscape:pagecheckerboard="0"
     inkscape:deskcolor="#d1d1d1"
     inkscape:document-units="mm"
     showgrid="false"
     inkscape:zoom="0.75455247"
     inkscape:cx="-73.553533"
     inkscape:cy="39.758667"
     inkscape:window-width="1920"
     inkscape:window-height="1027"
     inkscape:window-x="-8"
     inkscape:window-y="-8"
     inkscape:window-maximized="1"
     inkscape:current-layer="layer1" /><defs
     id="defs2" /><g
     inkscape:label="Слой 1"
     inkscape:groupmode="layer"
     id="layer1"
     transform="translate(-32.414243,-22.70767)"><g
       style="fill:none"
       id="g455"
       transform="matrix(0.26458333,0,0,0.26458333,36.250701,24.559753)"><path
         d="m 49.7219,13.8938 2e-4,10e-5 C 50.2239,14.381 50.5,15.0383 50.5,15.7137 V 16 h -16 V 0.5 h 0.3102 c 0.7238,0 1.4078,0.274263 1.9094,0.76096 0,6e-5 1e-4,1.1e-4 1e-4,1.7e-4 z M 29.25,0.5 v 17.0312 c 0,1.9917 1.6724,3.5938 3.6875,3.5938 H 50.5 V 62.9062 C 50.5,64.3306 49.3169,65.5 47.8125,65.5 H 3.1875 C 1.68306,65.5 0.5,64.3306 0.5,62.9062 V 3.09375 C 0.5,1.6694 1.68306,0.5 3.1875,0.5 Z"
         stroke="#000000"
         id="path446" /></g></g></svg>
