<?xml version="1.0" encoding="UTF-8" standalone="no"?>
<svg
   width="110"
   height="62"
   viewBox="0 0 110 62"
   fill="none"
   version="1.1"
   id="svg12"
   sodipodi:docname="about-num-1.svg"
   xml:space="preserve"
   inkscape:version="1.2.2 (732a01da63, 2022-12-09)"
   xmlns:inkscape="http://www.inkscape.org/namespaces/inkscape"
   xmlns:sodipodi="http://sodipodi.sourceforge.net/DTD/sodipodi-0.dtd"
   xmlns="http://www.w3.org/2000/svg"
   xmlns:svg="http://www.w3.org/2000/svg"><defs
     id="defs16" /><sodipodi:namedview
     id="namedview14"
     pagecolor="#ffffff"
     bordercolor="#000000"
     borderopacity="0.25"
     inkscape:showpageshadow="2"
     inkscape:pageopacity="0.0"
     inkscape:pagecheckerboard="0"
     inkscape:deskcolor="#d1d1d1"
     showgrid="false"
     inkscape:zoom="6.6171875"
     inkscape:cx="46.621015"
     inkscape:cy="16.92562"
     inkscape:window-width="1920"
     inkscape:window-height="1027"
     inkscape:window-x="-8"
     inkscape:window-y="-8"
     inkscape:window-maximized="1"
     inkscape:current-layer="g201" /><g
     style="fill:none"
     id="g201"
     transform="translate(-0.276031,-0.6000085)"><g
       style="fill:none"
       id="g306"
       transform="translate(48.755994,-24.052884)"><path
         d="m -35.483194,82.955483 0.0045,0.0028 c 3.893,2.4045 8.2973,3.602601 13.1987,3.602601 4.9562,0 9.3621,-1.1975 13.2015995,-3.604301 l 0.0017,-0.0011 c 3.8962,-2.4638 6.9515005,-6.0115 9.1712005,-10.621699 2.2244,-4.619801 3.3255,-10.186101 3.3255,-16.680901 0,-6.4948 -1.1011,-12.0611 -3.3255,-16.680899 -2.2193,-4.6095 -5.2747005,-8.13001 -9.1720005,-10.53818 -3.8391995,-2.46295 -8.2454995,-3.688903 -13.2024995,-3.688903 -4.9028,0 -9.308,1.226843 -13.2009,3.687973 -3.89802,2.4082 -6.95391,5.92901 -9.17357,10.53911 -2.22436,4.619799 -3.325499,10.186099 -3.325499,16.680899 0,6.4948 1.101139,12.061101 3.325499,16.680901 2.21971,4.610199 5.27507,8.157899 9.17127,10.621699 z m 18.8693,-10.7361 v -10e-5 l -0.0063,0.0048 c -1.5852,1.2153 -3.4639,1.8288 -5.6598,1.8288 -2.1355,0 -4.0171,-0.6111 -5.6629,-1.8312 -1.5767,-1.2101 -2.8738,-3.1571 -3.8611,-5.898 -0.927,-2.7287 -1.4,-6.2794 -1.4,-10.6708 0,-4.3914 0.473,-7.9422 1.4,-10.6709 0.9873,-2.7408 2.2844,-4.6878 3.8611,-5.8979 1.6458,-1.22 3.5274,-1.8312 5.6629,-1.8312 2.1959,0 4.0746,0.6135 5.6598,1.8288 v 1e-4 l 0.0063,0.0047 c 1.6294,1.2089 2.9255,3.153 3.8565,5.8914 v 0 l 0.003,0.0084 c 0.9814,2.726 1.4824,6.275 1.4824,10.6666 0,4.3916 -0.501,7.9406 -1.4824,10.6667 l -10e-5,-10e-5 -0.0029,0.0085 c -0.931,2.7383 -2.2271,4.6825 -3.8565,5.8914 z m 34.3895,12.8335 v 0.5 h 0.5 13.608 0.5 v -0.5 -58.799989 -0.5 h -0.5 -25.368 -0.5 v 0.5 10.91999 0.5 h 0.5 11.26 z"
         stroke="#333333"
         id="path176"
         style="fill:none" /></g></g></svg>
