<?xml version="1.0" encoding="UTF-8" standalone="no"?>
<!-- Created with Inkscape (http://www.inkscape.org/) -->

<svg
   width="21.166666mm"
   height="21.166666mm"
   viewBox="0 0 21.166666 21.166667"
   version="1.1"
   id="svg5"
   xml:space="preserve"
   inkscape:version="1.2.2 (732a01da63, 2022-12-09)"
   xmlns:inkscape="http://www.inkscape.org/namespaces/inkscape"
   xmlns:sodipodi="http://sodipodi.sourceforge.net/DTD/sodipodi-0.dtd"
   xmlns="http://www.w3.org/2000/svg"
   xmlns:svg="http://www.w3.org/2000/svg"><sodipodi:namedview
     id="namedview7"
     pagecolor="#ffffff"
     bordercolor="#000000"
     borderopacity="0.25"
     inkscape:showpageshadow="2"
     inkscape:pageopacity="0.0"
     inkscape:pagecheckerboard="0"
     inkscape:deskcolor="#d1d1d1"
     inkscape:document-units="mm"
     showgrid="false"
     inkscape:zoom="0.75455247"
     inkscape:cx="-73.553533"
     inkscape:cy="39.758667"
     inkscape:window-width="1920"
     inkscape:window-height="1027"
     inkscape:window-x="-8"
     inkscape:window-y="-8"
     inkscape:window-maximized="1"
     inkscape:current-layer="layer1" /><defs
     id="defs2" /><g
     inkscape:label="Слой 1"
     inkscape:groupmode="layer"
     id="layer1"
     transform="translate(-32.414243,-22.70767)"><g
       style="fill:none"
       id="g421"
       transform="matrix(0.26458333,0,0,0.26458333,36.250701,23.898295)"><path
         d="m 49.709,14.9062 2e-4,2e-4 c 0.506,0.5283 0.7908,1.2492 0.7908,1.9977 V 17.25 h -16 V 0.5 h 0.3102 c 0.7121,0 1.3923,0.289892 1.8967,0.81655 z M 29.25,0.5 v 18.3594 c 0,2.086 1.6381,3.8281 3.6875,3.8281 H 50.5 V 67.6719 C 50.5,69.2606 49.2826,70.5 47.8125,70.5 H 3.1875 C 1.71736,70.5 0.5,69.2606 0.5,67.6719 V 3.32812 C 0.5,1.73937 1.71736,0.5 3.1875,0.5 Z m 7.4062,53.25 c 1.1729,0 2.0938,-0.9933 2.0938,-2.1641 v -1.1093 c 0,-1.1708 -0.9209,-2.1641 -2.0938,-2.1641 H 14.3438 c -1.1729,0 -2.0938,0.9932 -2.0938,2.1641 v 1.1093 c 0,1.1709 0.9209,2.1641 2.0938,2.1641 z m 0,-8.875 c 1.1729,0 2.0938,-0.9933 2.0938,-2.1641 v -1.1093 c 0,-1.1708 -0.9209,-2.1641 -2.0938,-2.1641 H 14.3438 c -1.1729,0 -2.0938,0.9932 -2.0938,2.1641 v 1.1093 c 0,1.1709 0.9209,2.1641 2.0938,2.1641 z M 38.75,33.8359 v -1.1093 c 0,-1.1709 -0.9209,-2.1641 -2.0938,-2.1641 H 14.3438 c -1.1729,0 -2.0938,0.9932 -2.0938,2.1641 v 1.1093 C 12.25,35.0068 13.1709,36 14.3438,36 h 22.3124 c 1.1729,0 2.0938,-0.9933 2.0938,-2.1641 z"
         stroke="#000000"
         id="path412" /></g></g></svg>
