<?xml version="1.0" encoding="UTF-8" standalone="no"?>
<!-- Created with Inkscape (http://www.inkscape.org/) -->

<svg
   width="21.166666mm"
   height="21.166666mm"
   viewBox="0 0 21.166666 21.166667"
   version="1.1"
   id="svg5"
   xml:space="preserve"
   inkscape:version="1.2.2 (732a01da63, 2022-12-09)"
   xmlns:inkscape="http://www.inkscape.org/namespaces/inkscape"
   xmlns:sodipodi="http://sodipodi.sourceforge.net/DTD/sodipodi-0.dtd"
   xmlns="http://www.w3.org/2000/svg"
   xmlns:svg="http://www.w3.org/2000/svg"><sodipodi:namedview
     id="namedview7"
     pagecolor="#ffffff"
     bordercolor="#000000"
     borderopacity="0.25"
     inkscape:showpageshadow="2"
     inkscape:pageopacity="0.0"
     inkscape:pagecheckerboard="0"
     inkscape:deskcolor="#d1d1d1"
     inkscape:document-units="mm"
     showgrid="false"
     inkscape:zoom="0.75455247"
     inkscape:cx="-73.553533"
     inkscape:cy="39.758667"
     inkscape:window-width="1920"
     inkscape:window-height="1027"
     inkscape:window-x="-8"
     inkscape:window-y="-8"
     inkscape:window-maximized="1"
     inkscape:current-layer="layer1" /><defs
     id="defs2" /><g
     inkscape:label="Слой 1"
     inkscape:groupmode="layer"
     id="layer1"
     transform="translate(-32.414243,-22.70767)"><g
       style="fill:none"
       id="g438"
       transform="matrix(0.26458333,0,0,0.26458333,36.250701,22.981017)"><path
         d="m 17.5,58.1888 v -0.5 H 17 8.5 c -4.36154,0 -8,-4.0191 -8,-9.1109 v -4.3055 h 50 v 4.3055 c 0,5.0918 -3.6385,9.1109 -8,9.1109 H 34 33.5 v 0.5 9.611 c 0,5.0919 -3.6385,9.111 -8,9.111 -4.3615,0 -8,-4.0191 -8,-9.111 z M 4.25,1.02295 h 42.5 c 2.0147,0 3.75,1.86861 3.75,4.30549 V 38.4669 H 0.5 V 5.32844 C 0.5,2.89156 2.2353,1.02295 4.25,1.02295 Z M 29.1875,67.7998 c 0,-2.208 -1.5958,-4.1041 -3.6875,-4.1041 -2.0917,0 -3.6875,1.8961 -3.6875,4.1041 0,2.2064 1.5956,4.1041 3.6875,4.1041 2.0919,0 3.6875,-1.8977 3.6875,-4.1041 z"
         stroke="#000000"
         id="path429" /></g></g></svg>
