<svg width="49" height="54" viewBox="0 0 49 54" fill="none" xmlns="http://www.w3.org/2000/svg">
<path d="M47.2877 29.7682C48.3347 26.5491 48.9062 21.7364 46.8488 18.8218C44.7726 15.8826 40.3471 15.538 37.3004 15.91C33.7373 16.3443 30.6274 18.515 27.5648 20.4577C25.8078 21.5728 24.0789 22.7376 22.3673 23.9364C22.5999 21.1942 22.8227 18.4507 22.9596 15.7059C23.1383 12.1281 23.0282 8.38905 21.642 5.09179C20.1761 1.60367 17.3522 0.367597 14.0756 0.321381C10.8694 0.2754 8.47497 1.86324 6.392 4.54647C-3.1617 16.8507 2.14756 34.1336 3.73572 48.7759C3.66311 48.7906 3.59113 48.8043 3.51946 48.8197C2.36064 49.0574 2.59259 49.6398 3.4478 50.1046C3.58515 50.1792 3.73326 50.2423 3.88812 50.2984C3.94287 50.9057 3.9933 51.5113 4.03111 52.109C4.12813 53.6305 10.056 53.6311 9.98574 52.5332C9.93125 51.6851 9.86046 50.8353 9.77735 49.9838C17.2749 48.5283 25.0215 47.3789 32.1997 44.5782C38.6731 42.0521 44.8355 37.3031 47.2877 29.7682ZM38.5378 34.799C38.1042 35.4054 37.6438 35.9735 37.1658 36.5149C32.1212 37.6659 27.1244 39.053 22.1824 40.662C25.0635 38.491 28.0901 36.5574 31.0892 34.573C33.5645 32.936 36.0253 31.2534 38.3402 29.3362C39.352 28.4986 41.1417 27.2892 42.1052 25.8129C42.0976 25.887 42.09 25.9566 42.0809 26.022C41.6669 29.2679 40.3527 32.2637 38.5378 34.799ZM30.347 23.2632C33.1512 21.3839 36.0958 19.1658 39.2153 18.0082C41.1931 17.2744 41.9271 20.0244 42.1211 22.6097C40.8439 21.8881 37.9457 22.2317 37.1959 22.5056C32.1303 24.3545 27.2058 26.5911 22.3607 29.0394C24.9715 27.0223 27.6279 25.0861 30.347 23.2632ZM7.70152 15.537C7.84578 15.4978 7.98696 15.4548 8.12412 15.4027C10.053 14.6638 12.0003 14.0953 13.9737 13.682C12.5838 16.2127 10.6049 18.2905 8.78205 20.4358C8.1385 21.1931 7.49434 21.9516 6.85079 22.7089C6.92356 20.3045 7.18159 17.9112 7.70152 15.537ZM14.8329 23.9607C13.6371 24.3589 12.4413 24.7571 11.2449 25.1563C12.5314 23.6426 13.8179 22.1289 15.1037 20.6162C15.7414 19.8665 16.3798 19.1248 16.9987 18.3685C16.8596 20.2126 16.658 22.0565 16.4606 23.8704C15.6612 23.8616 15.0058 23.9023 14.8329 23.9607ZM7.50928 29.3778C8.99297 28.8842 10.4757 28.3899 11.9594 27.8963C10.5031 30.0232 9.0461 32.1512 7.58973 34.2782C7.37937 32.6866 7.19701 31.0949 7.06235 29.5059C7.21277 29.4698 7.36134 29.4278 7.50928 29.3778ZM17.0281 29.733C18.1538 30.0276 19.9123 29.9573 20.9767 29.7465C18.8843 30.8249 16.807 31.9387 14.739 33.0776C15.502 31.9627 16.265 30.8479 17.0281 29.733ZM13.4236 3.92459C13.78 3.55838 14.2058 3.26685 14.6023 2.95484C14.6593 3.02328 14.7157 3.09277 14.7728 3.16122C14.9912 3.97286 15.758 4.81703 16.0565 5.66473C16.318 6.40777 16.5108 7.19719 16.6628 7.97694C16.8665 9.02449 16.9955 10.0972 17.0774 11.1843C16.7022 11.1675 16.4241 11.1648 16.3505 11.1698C13.7137 11.3452 11.1138 11.7592 8.55203 12.3916C8.58572 12.289 8.6145 12.1856 8.64912 12.0836C9.68619 8.99708 11.256 6.15569 13.4236 3.92459ZM23.1372 44.6005C18.6526 45.8438 14.0825 46.7473 9.51817 47.6342C9.21791 45.1708 8.837 42.6951 8.45609 40.2148C9.09182 40.212 9.60071 40.1576 9.78641 40.0502C17.93 35.3665 26.1044 30.703 34.6019 26.9177C33.6627 27.7406 32.6385 28.4408 31.9921 28.9582C29.6485 30.8357 27.1763 32.4947 24.6955 34.1275C19.7365 37.3908 14.7337 40.579 10.487 44.9948C9.83346 45.6739 11.9706 46.1516 12.1519 46.1899C13.3302 46.4382 14.7422 46.5472 15.8902 46.083C21.4867 43.8228 27.1668 41.8828 32.9208 40.2499C29.9347 42.2937 26.561 43.6504 23.1372 44.6005Z" fill="#F9F2EB"/>
</svg>
