<svg width="24" height="18" viewBox="0 0 24 18" fill="none" xmlns="http://www.w3.org/2000/svg">
    <path d="M23.154 5.811a.278.278 0 0 1 .447.215v9.372c0 1.215-.991 2.2-2.213 2.2H2.213A2.207 2.207 0 0 1 0 15.398V6.031c0-.23.263-.357.447-.215 1.033.797 2.402 1.81 7.103 5.206.973.705 2.614 2.19 4.25 2.181 1.646.014 3.32-1.503 4.255-2.181 4.702-3.396 6.066-4.414 7.099-5.211zM11.8 11.732c1.07.018 2.61-1.338 3.384-1.897 6.117-4.414 6.582-4.799 7.993-5.898.267-.207.424-.527.424-.867V2.2C23.6.985 22.61 0 21.388 0H2.213A2.207 2.207 0 0 0 0 2.2v.87c0 .34.157.656.424.867C1.834 5.032 2.3 5.42 8.417 9.835c.774.559 2.314 1.915 3.383 1.897z" fill="#84786C"/>
</svg>
