<svg width="889" height="693" viewBox="0 0 889 693" fill="none" xmlns="http://www.w3.org/2000/svg">
<path d="M82.1991 231.958C204.489 57.6717 524.94 -186.329 828.431 231.958C1207.79 754.817 -366.449 833.182 82.1991 231.958Z" fill="#F9F2EB" stroke="#F9F2EB"/>
<path d="M411.325 551.193C411.336 551.2 411.339 551.204 411.35 551.211C411.184 551.217 411.025 551.225 410.882 551.237C411.035 551.219 411.146 551.201 411.325 551.193ZM411.627 549.335C411.751 549.315 411.916 549.296 412.086 549.274C412.06 549.223 411.982 549.178 411.977 549.127C411.786 549.19 411.688 549.261 411.627 549.335ZM410.004 551.503C409.956 551.357 410.344 551.281 410.887 551.234C409.95 551.285 409.447 551.362 410.004 551.503ZM372.907 484.982C373.124 485.114 373.363 485.271 373.625 485.442C373.622 485.437 373.619 485.432 373.616 485.428C373.348 485.247 373.117 485.104 372.907 484.982ZM375.189 483.934C374.966 483.855 374.834 483.852 374.742 483.878C374.887 483.954 375.054 484.043 375.239 484.148C375.232 484.084 375.174 483.985 375.189 483.934ZM372.11 484.724C372.123 484.586 372.428 484.708 372.903 484.985C372.074 484.46 371.64 484.245 372.11 484.724ZM420.074 330.879C421.298 334.842 422.373 338.827 423.196 342.793C424.123 346.751 425.034 350.694 425.871 354.609C426.159 355.384 426.439 356.158 426.714 356.901C426.666 358.292 430.454 369.155 433.188 380.161C436.015 391.154 437.766 402.132 437.005 402.849C437.246 403.395 437.38 404.551 437.733 404.485C438.557 411.955 437.612 417.753 438.136 425.338C438.139 425.165 438.148 424.906 438.155 424.635C439.423 438.93 439.034 454.964 439.611 467.428C439.028 470.194 437.982 472.525 438.348 475.75C439.412 489.303 440.312 506.128 441.806 521.437C443.045 535.634 443.84 550.491 447.595 563.446C451.041 583.246 456.412 602.164 464.919 619.92L465.218 619.594C466.255 623.898 467.703 623.259 468.968 628.412C470.315 632.124 464.835 624.444 464.919 626.788C463.73 625.283 462.658 624.029 461.651 622.897C460.701 621.727 459.835 620.653 458.966 619.575C457.204 617.433 455.454 615.228 453.601 611.704C450.051 610.423 445.092 601.679 441.324 595.477C438.788 585.88 434.614 579.601 432.02 571.703L431.703 572.368C424.45 549.767 421.653 525.367 420.903 502.793C419.238 496.494 420.048 489.738 418.578 483.161C419.367 487.368 419.169 479.372 420.394 480.054L419.674 471.271C419.986 470.692 420.326 469.738 420.323 468.469C420.427 459.325 419.679 447.52 419.815 437.412L419.236 438.481C419.328 435.81 419.427 432.793 420.351 433.59C419.52 429.78 419.279 421.655 417.333 418.26L417.504 414.403C416.909 417.58 416.289 417.856 415.776 419.203C414.672 411.744 412.996 404.154 410.908 395.985C410.963 399.319 410.923 399.331 410.874 402.685C410.803 400.674 410.733 398.697 410.661 396.694C410.527 389.811 409.258 377.396 406.74 365.381C404.268 353.364 400.429 341.659 398.096 336.221C394.042 326.017 388.121 317.922 379.911 314.678C375.884 313.013 371.641 312.65 368.334 313.644C365.056 314.577 362.389 316.936 360.789 319.862C359.764 321.796 359.073 324.052 358.727 326.492C359.154 326.842 357.679 329.248 355.92 332.38C354.123 335.421 351.988 339.044 349.854 339.408C355.871 351.589 353.506 369.953 353.148 386.746C352.54 383.036 352.314 379.262 351.831 375.565C351.639 371.843 351.099 368.185 350.957 364.601L350.962 366.826C350.087 366.626 349.215 366.683 349.486 369.438C350.577 369.435 351.089 373.427 351.483 375.431C352.07 378.628 349.922 378.509 351.241 381.822C350.769 382 350.396 381.22 349.871 381.849C349.661 384.194 349.683 383.517 349.634 386.337C350.037 388.281 350.838 388.366 351.337 388.429C351.958 389.902 352.212 391.554 351.958 392.452C349.459 390.114 351.36 397.735 348.943 395.68L349.435 398.502C349.79 396.903 350.09 396.932 351.074 397.915C351.596 401.661 351.834 404.178 352.298 407.824C352.979 408.971 352.749 408.055 353.274 408.983C353.484 412.66 358.269 417.731 357.096 419.449C357.028 419.397 356.974 419.378 356.924 419.363C356.646 419.21 356.543 419.168 356.47 419.913C356.553 419.893 356.601 419.841 356.666 419.805C356.63 420.136 356.653 420.6 356.655 421.001C357.936 422.699 358.648 424.195 359.029 426.147C358.528 426.406 357.717 424.913 357.446 424.708L357.584 424.262C356.307 422.569 354.916 421.968 354.001 421.322C356.316 423.868 356.812 428.526 358.944 430.951L358.848 432.477C359.013 432.895 359.132 432.681 359.224 432.675C359.299 433.856 358.226 432.884 358.031 433.339C358.464 433.78 358.89 434.233 359.324 434.667C370.776 449.383 379.812 464.968 387.728 480.725L388.023 480.402C388.87 484.331 390.253 483.728 391.16 488.397C392.109 491.679 387.472 484.931 387.342 487.053C386.848 486.433 386.383 485.869 385.932 485.336C386.399 488.141 378.463 485.012 381.064 488.991L381.554 489.217C381.8 489.719 381.554 489.75 381.253 489.749C381.161 489.871 381.034 489.865 380.884 489.771C380.695 489.806 380.577 489.918 380.729 490.297C381.147 490.905 378.308 488.736 375.776 486.913C375.87 487.255 375.867 487.523 375.616 487.598C375.626 488.22 374.822 487.816 374.177 486.735C374.106 486.324 373.864 485.86 373.632 485.431C373.755 485.514 373.871 485.588 374.002 485.674C373.871 485.588 373.742 485.495 373.622 485.417C373.174 484.595 372.759 483.897 373.613 483.939C372.31 482.584 370.933 479.944 370.334 479.666C369.902 478.493 367.64 475.838 368.415 475.017C369.208 476.323 369.881 477.646 371.122 478.625C370.921 477.178 369.577 476.867 369.893 475.731C369.487 474.117 368.17 474.411 367.726 473.868C366.489 470.89 364.798 467.164 364.501 465.049C364.467 464.996 364.43 464.918 364.395 464.865C363.987 464.503 363.577 464.136 363.173 463.812C362.841 463.23 362.49 462.714 362.139 462.178C362.966 465.355 364.034 468.703 365.128 471.411C364.614 470.217 363.653 469.123 362.617 468.249C363.403 468.521 363.607 467.841 363.477 467.433L362.388 465.453L362.589 465.636L361.493 463.646C361.86 464.677 360.71 464.445 359.742 462.871L359.594 462.236C358.419 461.432 349.634 451.998 348.735 450.885C348.531 450.02 348.239 449.603 347.94 448.958L347.843 448.966C348.024 448.909 348.062 448.769 348.057 448.594C334.837 435.273 320.731 422.907 305.943 413.898C301.039 412.533 296.912 409.272 291.712 408.49C294.941 409.153 289.362 406.704 290.294 405.829C288.108 405.194 285.946 404.51 283.745 404.029C283.433 403.583 282.85 403.015 281.923 402.684C275.325 400.39 266.002 399.166 258.726 398.668L259.479 399.296C257.55 399.074 255.343 399.001 255.911 398.062C253.094 398.77 247.181 399.573 245.394 401.972C244.555 402.11 243.657 402.179 242.83 402.357C245.087 402.494 245.372 403.025 246.36 403.377C241.82 405.286 238.056 408.424 236.541 411.792C237.772 411.042 237.823 411.077 239.215 410.468C238.416 410.908 237.635 411.323 236.988 411.828C234.558 413.369 231.215 417.434 231.874 425.047C232.386 432.551 236.668 441.096 239.212 445.166C248.641 461.301 263.876 474.568 280.865 480.108C283.564 480.974 286.29 481.694 289.06 482.199C289.693 481.443 300.753 488.659 300.414 492.845C306.86 491.289 313.485 492.506 320.189 495.067C326.874 497.619 333.74 501.494 340.1 505.222C333.903 503.007 327.709 500.715 321.749 498.885L323.542 499.599C323.046 500.367 322.805 501.126 325.071 501.886C325.487 500.87 328.824 501.866 330.586 502.189C333.337 502.885 332.355 504.832 335.472 504.927C335.414 505.423 334.653 505.462 334.925 506.18C336.639 507.307 336.16 506.93 338.272 508.195C339.908 508.669 340.326 507.992 340.587 507.576C341.974 507.66 343.355 508.131 343.918 508.74C341.06 509.898 347.584 511.64 344.944 512.86L347.227 513.739C346.227 512.691 346.379 512.441 347.562 512.036C350.574 513.266 352.486 514.319 355.293 515.77C356.448 515.76 355.68 515.504 356.603 515.515C359.289 517.135 365.299 516.021 365.859 517.883C365.793 517.906 365.748 517.942 365.708 517.975C365.448 518.131 365.378 518.17 365.833 518.658C365.863 518.578 365.855 518.514 365.867 518.438C366.07 518.654 366.39 518.903 366.659 519.137C368.493 519.079 369.895 519.372 371.39 520.185C371.274 520.739 369.834 520.533 369.549 520.63L369.336 520.263C367.499 520.317 366.351 521.101 365.426 521.474C368.35 521.106 371.701 523.221 374.437 523.12L375.338 524.123C375.696 524.252 375.631 524.027 375.684 523.952C376.678 524.792 374.368 524.949 375.892 525.681C375.83 525.073 377.006 525.294 377.964 525.536C378.443 526.74 392.828 527.648 393.726 528.687C395.079 528.958 387.474 527.957 384.183 527.354C384.52 527.599 384.85 527.895 385.46 528.085C385.063 528.303 395.152 528.527 395.175 529.168C395.713 529.677 396.473 530.171 397.437 530.067C396.969 529.779 397.253 529.702 397.532 529.616L399.259 530.324C398.279 530.111 398.752 530.697 398.255 531.077C399.365 532.326 402.004 532.944 403.344 533.217L403.123 532.931C404.637 533.26 406.333 533.962 406.937 534.907C406.051 535.779 402.966 533.423 403.581 535.262C400.851 534.505 404.903 534.357 402.395 533.311C400.894 533.848 402.08 535.506 402.363 536.305C403.639 536.94 405.908 537.964 407.536 538.677C408.468 538.607 407.277 538.176 408.523 538.243C409.892 538.455 409.986 540 411.336 539.65C410.887 540.217 412.192 541.031 412.81 541.611C413.196 541.407 412.796 540.827 414.16 541.282C415.559 542.22 416.208 543.285 416.233 543.774C418.381 544.571 421.058 545.739 419.617 543.639C424.049 545.997 414.264 547.953 418.045 549.963L418.493 549.875C418.883 550.168 418.621 550.332 418.366 550.506C418.333 550.561 418.295 550.607 418.238 550.624C418.059 550.768 417.935 550.924 418.201 551.174C418.678 551.422 415.867 551.251 413.399 551.197C413.576 551.416 413.66 551.628 413.499 551.822C413.703 552.311 412.983 552.433 412.166 551.935C411.983 551.645 411.663 551.417 411.358 551.212C411.522 551.201 411.684 551.198 411.863 551.19C411.688 551.195 411.487 551.19 411.333 551.195C410.734 550.801 410.194 550.498 410.831 550.04C409.401 549.765 407.443 548.579 406.913 548.72C406.183 548.063 403.568 547.429 403.761 546.366C404.848 546.837 405.839 547.433 407.088 547.451C406.4 546.451 405.319 547.035 405.097 545.984C404.162 545.004 403.34 546.088 402.813 545.961C400.734 544.559 397.968 542.868 396.768 541.617C395.509 541.292 393.668 539.98 392.389 539.99C394.793 542.026 397.661 544.197 400.006 545.807C399.159 545.254 398.021 545.103 396.955 545.144C397.595 544.827 397.439 544.191 397.168 543.986L395.537 543.33L395.758 543.323L394.115 542.661C394.831 543.15 393.98 543.74 392.605 543.32L392.208 542.985C390.971 543.015 380.996 543.249 379.866 543.277C379.294 542.893 378.905 542.853 378.388 542.679L378.335 542.754C378.772 541.772 375.803 542.175 376.102 541.043C375.255 540.75 374.349 540.536 374.098 540.925C371.537 540.646 370.925 538.257 368.077 538.363L368.144 537.233C366.398 536.57 367.109 537.855 364.788 536.72C364.263 536.168 362.74 535.093 361.438 534.387C353.79 532.034 346.386 528.455 338.676 526.06C338.391 527.662 341.831 527.08 341.373 528.22C328.361 524.153 312.317 520.435 298.365 514.085C293.275 512.007 290.695 508.5 285.689 506.039L286.483 506.197C285.379 505.45 274.131 503.318 273.608 501.651C269.412 499.111 271.062 498.969 266.747 497.116C266.337 495.976 265.704 495.071 264.015 494.337C262.046 493.437 260.072 492.603 258.166 491.6C254.235 489.141 250.129 485.893 245.761 482.933C247.651 485.949 243.683 484.689 241.024 477.946C239.292 476.112 238.05 476.856 236.988 474.919C234.831 474.034 232.28 472.421 229.874 471.062C227.85 468.792 225.704 466.408 223.946 463.574C223.068 462.179 222.174 460.748 221.255 459.291C220.397 457.727 219.522 456.16 218.769 454.507C215.63 447.948 213.357 440.783 211.896 433.448C211.654 432.711 211.397 431.984 211.189 431.259C211.31 430.585 210.46 427.697 209.98 423.315C209.462 418.98 209.495 412.958 211.322 407.055C213.044 401.159 216.578 395.746 219.924 392.45C223.26 389.128 226.022 387.562 226.5 387.686C226.913 387.232 227.974 386.607 227.766 386.319C234.732 382.236 240.728 382.02 247.906 380.655C247.741 380.653 247.484 380.678 247.228 380.715C254.008 379.358 261.49 379.304 268.304 380.255C275.051 381.105 281.49 382.581 287.06 384.107C289.308 385.466 290.961 387.146 293.83 387.887C305.781 391.323 319.775 398.636 331.121 407.284C333.367 408.994 335.519 410.833 337.625 412.716C336.391 407.16 335.382 401.56 334.233 396.072C332.646 396.645 335.071 400.123 333.854 400.249C330.046 383.501 326.718 363.391 328.741 344.294C329.419 337.262 332.289 332.851 334.469 325.91L334.337 326.953C334.759 326.144 335.169 322.09 336.385 317.981C337.456 313.87 339.585 309.799 340.564 309.426C342.799 306.604 343.863 305.786 344.89 305.005C345.958 304.245 346.693 303.32 349.355 300.931C350.898 300.626 352.456 300.27 354.614 298.586C357.302 296.896 360.19 295.282 363.366 294.38C370.288 292.623 378.124 293.507 385.187 295.477C383.166 294.194 383.445 293.629 385.316 294.128C387.139 294.638 390.507 296.433 393.451 300.079C396.27 301.987 397.508 301.225 399.393 303.533C402.335 304.719 405.626 306.921 408.518 309.075C413.969 315.113 417.604 322.994 420.074 330.879ZM416.376 548.622C416.953 548.45 417.198 548.249 416.711 548.006C416.48 548.082 416.383 548.33 416.376 548.622ZM410.85 548.961L411.308 549.4C411.383 549.379 411.473 549.36 411.63 549.34C411.269 549.781 412.772 550.479 413.358 551.135C415.464 551.064 417.603 550.97 416.975 550.657C417.27 550.805 417.648 551.091 417.914 551.027C417.833 550.82 417.682 550.672 417.494 550.563C417.208 550.491 416.905 550.415 416.598 550.384L416.4 550.206C416.278 550.176 416.156 550.146 416.031 550.112C415.597 550.034 415.17 549.977 414.824 550.012C414.748 550.178 414.994 550.366 414.816 550.742C413.945 550.403 412.417 549.864 412.089 549.279C412.229 549.262 412.361 549.245 412.513 549.227C411.89 549.026 411.252 548.917 410.85 548.961ZM380.247 489.225C379.989 488.956 379.704 488.657 379.404 488.416L379.279 488.101C379.163 487.985 379.051 487.867 378.937 487.744C378.525 487.364 378.114 487.018 377.746 486.8C377.596 486.905 377.769 487.264 377.433 487.504C376.682 486.553 375.319 484.929 375.239 484.148C375.38 484.226 375.536 484.309 375.699 484.401C375.149 483.769 374.543 483.208 374.136 482.941L374.397 483.707C374.484 483.746 374.597 483.802 374.742 483.878C374.176 484.036 375.423 485.777 375.759 486.835C377.975 488.29 380.226 489.737 379.686 488.942C379.926 489.298 380.2 489.843 380.489 489.961C380.488 489.709 380.395 489.462 380.247 489.225ZM380.518 486.191C380.251 486.106 380.049 486.278 379.912 486.56C380.589 486.8 380.921 486.775 380.518 486.191ZM385.356 484.695C384.126 483.285 383.007 482.117 381.907 480.956C381.954 481.342 381.958 481.661 381.883 481.84C383.464 483.766 385.312 486.206 385.356 484.695Z" fill="#FFFFFE"/>
</svg>
