<?xml version="1.0" encoding="UTF-8" standalone="no"?>
<!DOCTYPE svg PUBLIC "-//W3C//DTD SVG 1.1//EN" "http://www.w3.org/Graphics/SVG/1.1/DTD/svg11.dtd">
<svg xmlns="http://www.w3.org/2000/svg" version="1.1" viewBox="0 0 150 150">
<path fill="#c1e2b2" d="
  M 149.50 75.35
  A 74.13 74.13 0.0 0 1 75.37 149.48
  A 74.13 74.13 0.0 0 1 1.24 75.35
  A 74.13 74.13 0.0 0 1 75.37 1.22
  A 74.13 74.13 0.0 0 1 149.50 75.35
  Z
  M 142.55 75.32
  A 67.18 67.18 0.0 0 0 75.37 8.14
  A 67.18 67.18 0.0 0 0 8.19 75.32
  A 67.18 67.18 0.0 0 0 75.37 142.50
  A 67.18 67.18 0.0 0 0 142.55 75.32
  Z"
/>
<path fill="#5ab432" d="
  M 45.40 75.37
  Q 53.81 82.96 62.40 91.79
  A 1.35 1.34 -44.6 0 0 64.32 91.80
  Q 84.64 71.49 105.19 50.94
  C 108.50 47.63 113.60 52.60 109.48 56.72
  Q 87.14 79.03 64.36 101.72
  A 1.47 1.46 -44.9 0 1 62.29 101.72
  Q 51.73 91.12 41.11 80.15
  C 37.64 76.57 42.11 72.41 45.40 75.37
  Z"
/>
</svg>
