<svg width="206" height="284" viewBox="0 0 206 284" fill="none" xmlns="http://www.w3.org/2000/svg">
<path d="M61.0757 19.4951C58.5972 21.3253 52.6884 23.3233 54.4343 25.2686C53.7843 24.3404 50.5607 26.2371 50.2281 24.8824L46.5512 27.3214C49.1836 25.1996 51.7319 22.5447 54.3805 20.6446C56.9919 18.7022 59.4977 17.3946 61.2039 17.223L61.0757 19.4951ZM59.7724 16.9987C61.2788 16.4798 62.7138 15.873 64.2387 15.4704C65.9002 13.9341 67.7054 12.5506 69.5648 11.1516C66.1292 12.8698 62.832 14.7839 59.7724 16.9987ZM71.5847 14.7434C70.9322 14.7841 70.3495 14.9292 69.7932 15.1077C70.3294 15.0856 71.0362 14.9343 71.5847 14.7434ZM83.0387 12.9648C87.3917 10.427 79.1364 11.0272 85.1186 8.88044C79.279 9.95202 74.9623 10.5063 70.0787 11.8081C71.6487 11.877 72.1565 11.5459 74.2241 11.3765C70.8715 12.4952 66.8342 15.0696 63.4063 17.1515C65.6466 17.6408 67.3423 15.8942 69.7932 15.1077C69.0376 15.1359 68.6356 14.8981 69.5783 14.0692C73.7101 14.0494 75.3949 11.2992 79.2773 11.7613C78.186 12.1655 77.1398 12.6897 76.1059 13.2062C76.859 14.4981 82.7492 10.0132 83.0387 12.9648ZM88.2074 11.8176C91.8218 11.8115 97.0275 12.8505 98.5612 11.1566C95.0523 8.66962 93.8846 10.6018 92.1589 11.1924C91.3349 10.8731 88.9526 10.6314 88.6229 10.0414C88.0519 10.5891 87.0761 11.3196 88.2074 11.8176ZM88.9122 9.43709C88.5791 9.67811 88.5298 9.87031 88.6229 10.0414C88.8891 9.78751 89.077 9.57123 88.9122 9.43709ZM97.6523 13.0195C99.1514 14.3828 100.035 13.583 101.637 14.6073C102.663 14.3346 103.684 14.2004 104.785 14.0251L103.108 13.547L103.477 12.222C103.027 12.3732 100.908 14.091 97.6523 13.0195ZM101.981 7.0727C104.35 7.76227 106.077 8.21555 106.201 6.54144C104.003 5.65708 102.08 5.28944 101.344 5.37482L101.803 5.18321C101.803 5.18321 100.631 5.0802 99.0596 5.12964C97.4943 5.10626 95.5453 5.40789 93.978 5.87723C96.3564 5.47248 99.5754 6.31788 101.981 7.0727ZM113.619 10.5845C111.538 9.21198 108.975 7.62619 106.577 6.68026C106.559 6.67217 106.539 6.66767 106.522 6.65959C107.586 7.59132 108.558 8.16805 109.605 8.67472C110.716 9.29302 111.996 9.7692 113.619 10.5845ZM106.219 6.42472C106.217 6.47088 106.203 6.49529 106.201 6.54144C106.314 6.58569 106.413 6.61827 106.526 6.66251C106.421 6.57144 106.324 6.52228 106.219 6.42472ZM110.884 20.0914C109.642 18.8003 108.454 17.369 106.979 16.2693L107.765 17.4692C108.85 18.2871 109.858 19.2083 110.884 20.0914ZM108.716 11.3401C112.935 14.4174 107.092 8.49902 111.246 11.2613C111.875 11.5645 110.328 10.5082 108.481 9.56481C106.548 8.77144 104.409 7.98931 104.036 8.41178C105.028 9.18996 109.115 9.59182 108.716 11.3401ZM119.117 33.1361C115.839 29.4795 119.038 26.8006 115.454 26.426C117.147 27.4114 116.742 30.8514 117.874 32.6725L119.117 33.1361ZM120.356 46.4678C121.504 45.5916 123.13 48.1008 123.06 44.1187C122.316 43.5908 122.144 42.1998 121.392 42.5462C121.394 40.8682 122.28 41.0597 122.425 39.8792C120.91 37.2404 120.265 32.7786 118.456 31.0434C119.1 31.9788 118.937 32.3403 119.117 33.1361C119.891 37.3875 122.266 43.0673 120.356 46.4678ZM120.304 22.4943C120.154 21.1865 121.374 21.1434 118.594 17.6592C117.758 17.5806 116.938 17.5203 116.136 17.4875C117.506 18.5488 118.37 19.6094 119.065 20.5626C119.577 21.2292 119.963 21.8594 120.304 22.4943ZM126.233 27.1299C126.388 27.1305 126.518 27.1829 126.694 27.1418C126.365 26.7783 126.247 26.8494 126.233 27.1299ZM122.61 25.5445C123.503 25.8602 124.12 27.1135 124.671 28.2883C125.206 29.4745 125.55 30.618 126.273 30.754C126.598 30.4942 126.458 29.2543 126.354 28.2405C126.28 27.7753 126.219 27.3744 126.233 27.1299C125.005 27.1246 124.36 25.9922 123.828 25.065C123.193 24.0301 122.624 23.4352 121.711 25.2296C122.33 26.4663 123.031 27.8588 124.117 29.7438C123.707 28.3313 123.116 26.9571 122.61 25.5445ZM121.711 25.2296C121.372 24.5486 121.049 23.8987 120.715 23.2697C120.596 23.0061 120.446 22.7523 120.304 22.4943C120.369 23.059 120.683 23.8509 121.688 25.2647C121.693 25.2511 121.702 25.2403 121.711 25.2296ZM128.283 57.2093C128.254 58.0791 128.189 58.9493 128.143 59.8175C127.855 61.3935 128.951 57.282 128.283 57.2093ZM117.074 85.7817C117.394 89.3475 118.663 82.8935 119.464 82.7359C121.616 84.3146 117.404 85.5673 118.9 87.6072C120.56 88.5534 122.679 81.2669 124.385 78.5637C124.708 75.9433 124.154 75.8622 123.327 74.8733C124.476 74.4567 125.304 71.8961 126.405 71.399C125.962 65.7313 129.01 63.1499 127.839 57.4912C128.04 57.2671 128.18 57.1969 128.283 57.2093C128.286 57.0744 128.305 56.9411 128.307 56.8062L128.073 57.1159C127.699 55.7095 127.576 53.8999 127.574 52.022C127.079 54.4598 126.123 56.5705 125.166 58.4187C124.309 60.0793 123.478 61.5534 122.877 62.9875C122.881 62.9674 122.886 62.9472 122.887 62.9241C122.855 63.0948 122.8 63.199 122.751 63.3255C122.717 63.4111 122.689 63.496 122.659 63.5845C122.562 63.7258 122.434 63.7882 122.253 63.7246C120.917 60.9098 125.67 56.1605 123.716 56.1836C121.941 58.861 121.852 64.8394 120.443 65.6044C120.776 66.4831 121.767 64.2702 121.903 66.5547C120.992 69.9052 120.336 69.2698 119.009 71.0903C119.313 71.7847 119.605 72.487 119.871 73.1919C118.326 73.137 117.746 75.613 117.193 78.6412C117.073 79.1755 116.951 79.743 116.828 80.3039C118.781 76.2653 120.793 71.9646 122.039 67.0825C122.738 73.8698 118.496 79.3088 117.074 85.7817ZM128.216 43.3962C128.26 43.1455 128.298 42.8789 128.322 42.6007C128.289 42.824 128.25 43.1202 128.216 43.3962ZM127.822 46.9171C127.675 48.5246 127.571 50.2919 127.574 52.022C127.893 50.4592 128.021 48.7649 127.832 46.9128L127.822 46.9171ZM126.442 43.9295L127.757 41.6999C126.738 40.0312 125.592 38.425 124.461 36.909C126.922 40.5673 124.407 45.5369 127.318 46.0067L126.438 48.113L127.822 46.9171C127.948 45.5481 128.09 44.3417 128.213 43.3933C127.899 45.1098 127.095 46.0033 126.442 43.9295ZM129.373 39.6625C129.129 36.2892 128.581 36.6114 128.016 36.8663C127.705 37 127.405 37.0898 127.099 36.5959C127.484 38.0767 127.83 39.5679 128.128 41.0609C128.573 40.6016 128.962 40.1381 129.373 39.6625ZM127.102 36.5924C126.852 35.6329 126.6 34.677 126.292 33.7236C126.578 35.3557 126.843 36.1789 127.102 36.5924ZM117.603 89.6905C117.962 92.1327 119.557 89.8218 120.055 87.2491C119.305 89.4799 118.105 90.391 117.603 89.6905ZM99.3865 114.089C98.849 114.098 98.1979 114.569 97.7813 116.303C98.2429 116.065 98.8092 115.215 99.3865 114.089ZM108.502 95.493L108.501 95.5096L108.807 95.1991C108.685 95.2904 108.607 95.3936 108.502 95.493ZM45.823 32.9647L45.7941 32.9709L44.3415 34.7189C44.7642 34.2947 45.2451 33.7332 45.823 32.9647ZM51.2531 26.6816C50.1688 27.9551 49.1554 28.7026 48.2219 29.2055C47.3406 29.7686 46.5057 30.048 45.7224 30.2859C44.1616 30.7546 42.8149 31.07 41.8704 33.0351C47.0517 30.0577 41.683 34.3775 45.8013 32.9768C46.6988 31.8669 47.5904 30.7642 48.4646 29.6829C49.4075 28.6636 50.3387 27.6586 51.2531 26.6816ZM91.6556 6.31564C91.5559 6.33572 91.4945 6.3453 91.4013 6.36471C91.8698 6.32323 92.1069 6.26609 91.6556 6.31564ZM12.2471 189.047C11.9698 190.185 13.0664 192.489 12.7038 194.493C12.8539 192.787 14.084 189.637 12.2471 189.047ZM5.62217 189.569L5.94459 189.575C5.81821 189.335 5.68317 189.011 5.55196 188.66C5.55012 188.962 5.56777 189.262 5.62217 189.569ZM5.94101 189.572C6.21235 190.073 6.47571 190.239 6.74607 189.578L5.94101 189.572ZM5.47093 182.137L5.54622 185.85C4.41649 185.847 3.8552 185.849 3.85368 183.561C3.43326 184.136 4.20627 186.135 4.49092 187.278L4.56093 186.423C4.92191 186.902 5.24572 187.851 5.5513 188.653C5.52157 185.353 8.18545 182.673 5.47093 182.137ZM5.96135 180.708L4.18005 176.977C4.25449 178.407 4.55565 181.857 5.96135 180.708ZM7.06301 175.601C7.02046 174.834 7.03814 174.11 6.69832 173.517C6.14637 175.82 6.05543 172.083 5.55857 171.208C4.88644 175.604 6.53804 173.107 7.06301 175.601ZM15.5392 215.229L16.1242 214.979C15.9326 214.775 15.7408 214.762 15.5392 215.229ZM6.72628 163.415L6.79868 163.128C6.73829 162.763 6.67948 162.382 6.65634 161.964L6.72628 163.415ZM115.177 87.0663C114.922 86.728 114.67 86.3795 114.322 87.1803C115.643 85.5639 116.27 82.8696 116.827 80.2974C116.654 80.6567 116.481 81.0159 116.31 81.3716C114.913 84.2959 113.52 87.0753 112.329 89.8997C113.433 89.3399 114.487 88.6671 115.177 87.0663ZM170.935 181.848C173.636 181.64 178.017 177.553 181.592 174.018C180.696 174.665 179.787 175.283 178.852 175.862C178.367 174.651 175.881 175.963 175.17 175.051C176.884 176.874 172.284 178.193 170.59 179.756L170.935 181.848ZM165.724 187.481C167.926 185.765 170.07 183.972 172.134 182.109L168.858 183.391C167.853 184.771 166.801 186.13 165.724 187.481ZM155.012 187.654C152.879 191.058 158.503 188.494 155.155 191.898C158.719 189.421 161.782 188.388 165.159 186.902C163.953 186.951 163.641 187.275 162.13 187.623C164.321 186.25 166.82 183.692 169.161 181.839C167.251 181.362 166.28 182.972 164.535 183.821C165.123 183.764 165.51 183.984 164.968 184.781C161.717 185.029 161.241 187.757 158.236 187.973L160.16 186.144C159.093 184.96 156.254 190.196 155.012 187.654ZM163.217 184.255C163.714 184.178 164.137 184.009 164.531 183.818C164.112 183.858 163.594 184.032 163.217 184.255ZM149.444 192.27C150.147 192.211 151.813 191.518 152.3 191.915C152.438 191.247 152.778 190.303 151.774 190.212C149.268 191.359 145.444 193.261 145.762 195.498C149.045 195.496 148.68 193.662 149.444 192.27ZM152.388 192.553C152.492 192.22 152.437 192.032 152.297 191.918C152.234 192.23 152.207 192.482 152.388 192.553ZM141.962 194.876L141.034 197.48L142.04 196.601L142.793 197.733C142.844 197.327 142.577 194.698 145.107 193.559C143.353 193.298 143.479 194.622 141.962 194.876ZM145.415 203.512C143.525 203.623 142.762 204.569 141.162 205.97C142.465 205.197 144.077 204.329 145.415 203.512ZM145.604 203.397C146.83 202.644 147.792 201.945 148.005 201.427L147.949 201.834C147.949 201.834 150.006 199.679 151.176 197.576C149.073 200.116 143.46 200.872 145.604 203.397ZM145.651 203.478C145.622 203.448 145.629 203.424 145.6 203.394C145.535 203.437 145.477 203.473 145.415 203.512C145.5 203.51 145.56 203.481 145.651 203.478ZM137.419 197.771L134.555 199.204L138.602 197.811L137.419 197.771ZM141.665 201.943C138.52 203.26 143.996 202.416 141.135 203.846C140.463 204.43 145.286 201.644 145.1 200.73C144.202 200.809 142.702 203.186 141.665 201.943ZM113.745 208.079C114.83 208.92 113.678 211.008 116.488 209.978C116.589 209.173 117.542 208.698 117.025 208.074C118.265 207.708 118.447 208.625 119.355 208.548C120.791 206.572 124.179 205.761 125.28 204.079C124.614 204.663 124.327 204.554 123.713 204.739C120.332 205.549 116.924 208.886 113.745 208.079ZM128.867 201.662C128.1 203.051 125.202 202.36 123.861 203.532L123.71 204.742C126.209 201.482 128.753 204.994 128.867 201.662ZM130.11 208.47C129.902 210.087 126.906 210.197 127.037 211.513C127.422 211.969 129.024 211.546 129.572 211.67C129.091 209.283 132.952 209.925 130.249 207.707C129.392 208.087 128.465 208.589 127.287 209.501L130.11 208.47ZM129.572 211.67C129.599 211.812 129.588 211.928 129.651 212.092C129.845 211.833 129.773 211.715 129.572 211.67ZM132.135 206.949C133.088 207.058 133.212 208.23 135.687 206.814L135.94 204.799C134.367 206.02 133.225 206.532 132.135 206.949ZM130.209 207.668C130.227 207.683 130.231 207.692 130.249 207.707C130.899 207.42 131.516 207.189 132.135 206.949C131.726 206.902 131.181 207.03 130.209 207.668ZM117.894 213.058L119.89 213.825L122.153 210.051C120.326 212.727 115.999 211.486 116.84 214.338L115.08 214.085L116.434 215.027C117.324 214.798 118.142 214.648 118.805 214.58C117.607 214.582 116.761 214.048 117.894 213.058ZM103.913 216.36C103.923 216.356 103.929 216.355 103.939 216.351C103.853 216.382 103.793 216.375 103.717 216.396C103.613 216.407 103.517 216.437 103.417 216.45C103.28 216.428 103.17 216.351 103.116 216.169C104.14 213.703 109.555 215.949 108.572 214.303C105.957 213.717 102.191 216.28 100.997 215.516C100.66 216.207 102.512 215.981 101.233 217.18C98.7492 217.999 98.7774 217.218 96.9443 217.048L96.2597 218.826C95.2335 217.335 93.0076 218.811 90.5389 220.256C93.9234 219.545 97.4655 218.801 101.049 217.501C97.5089 221.338 92.1377 220.926 87.817 223.49C86.1889 225.768 90.2879 223.06 90.8789 223.636C91.3825 226.178 88.1185 223.581 88.0278 225.931C88.5656 227.685 93.5705 225.261 96.0193 225.223C97.6007 224.122 97.3177 223.636 97.3644 222.459C98.254 223.129 100.121 222.511 101.014 223.185C103.9 220.101 106.977 221.522 109.757 218.371C110.007 218.467 110.106 218.572 110.139 218.67L110.404 218.528L110.102 218.431C110.792 217.516 111.918 216.77 113.17 216.176C109.782 216.855 106.474 216.104 103.913 216.36ZM119.498 214.519C119.301 214.519 119.051 214.548 118.804 214.574C119.024 214.574 119.256 214.56 119.498 214.519ZM110.143 218.673L108.524 219.542C107.464 219.893 110.332 219.274 110.143 218.673ZM116.451 215.035L116.434 215.02C115.369 215.297 114.236 215.679 113.177 216.182C114.268 215.968 115.368 215.648 116.451 215.035ZM123.091 212.578L124.94 211.551C123.769 211.95 123.264 212.278 123.091 212.578ZM123.091 212.578L120.448 214.047L121.826 214.996C125.076 214.032 122.591 213.463 123.091 212.578ZM86.1762 226.157C85.1894 227.838 87.3397 227.706 88.9204 226.598C87.3524 227.317 86.145 226.942 86.1762 226.157ZM60.5835 229.471C61.0109 229.604 61.7591 229.344 62.6463 228.934C62.2583 228.577 61.601 228.506 60.5835 229.471ZM77.439 222.923L77.7972 222.958C77.6727 222.928 77.568 222.932 77.4484 222.918L77.439 222.923ZM181.419 169.291L182.359 167.924C182.067 168.246 181.782 168.699 181.396 169.297L181.419 169.291ZM184.848 169.557C180.853 171.749 184.762 168.433 181.419 169.291C180.187 170.98 178.941 172.628 177.69 174.172C180.452 170.136 183.835 172.872 184.848 169.557ZM152.236 196.288C152.276 196.232 152.32 196.207 152.363 196.154C152.106 196.361 152.001 196.49 152.236 196.288ZM118.156 116.663C117.226 116.722 116.016 118.406 114.442 118.643C115.741 118.283 118.422 118.524 118.156 116.663ZM115.427 110.957C115.565 110.766 115.758 110.542 115.985 110.322C115.748 110.409 115.526 110.52 115.311 110.66L115.427 110.957ZM115.72 111.708L115.427 110.957C115.14 111.361 115.117 111.652 115.72 111.708ZM121.066 108.573L118.186 109.594C117.802 108.537 117.612 108.001 119.433 107.404C118.839 107.153 117.497 108.414 116.694 108.975L117.394 108.818C117.136 109.281 116.503 109.832 115.989 110.325C118.599 109.424 121.511 111.282 121.066 108.573ZM122.332 108.686L124.794 106.217C123.666 106.586 120.988 107.586 122.332 108.686ZM126.653 108.719C127.238 108.528 127.806 108.401 128.18 107.955C126.24 107.865 129.137 107.043 129.732 106.473C126.077 106.529 128.468 107.755 126.653 108.719ZM102.03 128.695L102.521 129.065C102.536 128.827 102.437 128.663 102.03 128.695ZM136.146 106.518L136.387 106.559C136.665 106.458 136.958 106.362 137.279 106.297L136.146 106.518ZM188.749 181.029C187.548 180.654 188.997 178.896 190.419 176.82C191.883 174.67 193.225 172.158 192.189 171.053C190.842 172.232 188.631 174.209 188.546 175.492C189.289 175.882 190.093 174.886 190.895 173.901C189.169 178.685 182.668 181.541 182.17 185.198C183.221 184.689 184.296 184.218 185.341 183.651C182.534 186.602 178.662 185.695 178.676 187.785C178.901 186.426 179.078 185.016 179.237 183.656C177.166 187.211 172.971 189.789 170.591 192.551C171.428 194.048 174.855 189.72 174.816 190.105L174.085 192.071C168.896 194.268 172.184 192.168 166.061 194.707L166.578 195.711C163.846 195.357 160.428 200.961 160.866 197.291L162.727 197.061L161.94 195.95L155.942 200.216C156.099 198.998 153.149 200.867 153.357 199.25L151.572 201.531C149.621 200.372 154.815 197.262 154.389 195.831C153.896 195.09 152.849 195.762 152.363 196.154C154.514 193.431 157.464 195.654 160.31 194.147L161.113 192.305L161.859 193.817C162.878 192.895 163.315 191.334 163.387 190.528C167.314 190.878 168.839 186.729 173.063 184.342C170.289 187.493 176.13 184.129 175.829 184.843C177.773 183.495 180.05 177.617 182.812 177.721C184.359 177.343 181.577 180.57 184.193 178.571C185.568 176.897 185.903 175.24 184.385 175.678C187.215 172.02 190.91 167.641 193.163 162.978C193.324 163.52 193.437 164.046 193.572 164.591C195.975 162.062 195.796 158.361 195.121 156.394C195.694 156.115 195.454 155.766 195.932 156.452C197.492 154.756 197.237 153.202 196.878 151.433C196.443 149.619 195.934 147.603 196.234 144.286C194.669 144.65 194.376 147.431 194.733 149.568L193.055 148.762C192.19 154.061 190.257 159.743 188.927 164.128L188.732 161.712C186.79 162.787 186.982 163.605 187.081 164.435C187.193 165.242 187.312 166.119 185.154 166.751C184.167 169.259 187.007 165.733 186.486 167.793C184.964 168.99 184.278 165.662 182.356 167.927C185.478 163.339 188.094 157.988 189.558 152.318C191.054 146.669 191.109 140.638 189.42 135.469C189.02 135.375 189.139 135.931 189.116 136.508C188.279 135.773 187.657 133.42 186.126 130.56C184.694 127.673 182.295 124.297 179.051 121.668C175.85 119.008 171.978 117.15 168.886 116.324C165.768 115.508 163.484 115.68 163.06 116.764C162.611 115.999 164.573 115.542 162.152 115.238C161.877 115.539 161.208 115.9 161.673 116.647C158.869 114.889 155.152 114.758 151.401 115.004C147.608 115.288 143.827 115.945 139.943 116.005C140.265 116.744 138.727 117.499 138.83 118.053C135.886 116.825 132.13 119.866 129.573 119.715L130.598 120.329L127.029 121.545L123.538 122.98C123.463 123.372 124.413 122.995 125.015 122.878C123.668 123.896 122.933 123.095 122.464 122.433C121.667 123.434 120.953 124.568 120.235 125.634C115.083 126.181 110.412 129.491 106.125 133.243C101.771 136.996 97.9404 141.358 93.2912 144.626C93.2277 146.921 92.7035 148.341 91.0691 150.59L92.3089 149.872C91.4749 152.85 91.6052 149.478 90.533 151.702C90.2432 153.551 92.0292 153.581 92.7664 151.388C94.0468 150.715 93.9057 151.708 93.5714 152.675C87.9217 158.993 82.9261 164.999 77.3452 170.26C78.3335 168.819 79.3018 167.439 80.1785 165.806C81.1831 164.235 82.0364 162.374 82.9597 160.011C81.2803 159.067 83.6315 158.044 82.1209 156.666C80.993 158.571 82.49 155.846 84.6865 152.387C82.6851 153.426 81.385 155.572 80.1633 157.812C78.4911 160.62 76.943 163.583 74.075 163.792C73.2451 165.689 77.23 162.828 75.1359 166.037C74.0798 167.649 73.0376 166.932 72.8324 166.628C72.5432 167.137 72.2546 167.652 71.9601 168.175C69.7747 167.099 68.5216 165.221 68.4389 162.301C68.3841 159.397 69.5049 155.438 71.9201 150.012C73.3452 149.469 69.111 154.414 72.364 152.964C76.7669 149.985 81.0522 144.706 84.9466 138.912C88.8741 133.121 92.5711 126.94 96.4362 122.045C99.0366 119.707 99.3862 118.89 101.3 116.516C101.093 116.354 100.798 116.203 100.474 116.207C102.029 113.221 103.824 108.088 105.764 105.26C105.828 104.252 104.957 103.156 104.536 104.945C105.435 99.8756 109.846 97.5518 109.833 94.4734C108.283 96.5596 109.513 91.7711 107.966 94.3594C108.889 91.3228 110.667 90.7268 112.317 89.8845C111.276 92.3487 110.386 94.8402 109.831 97.5041C107.912 99.2178 108.1 101.182 108.748 102.691C109.03 102.308 109.132 102.242 108.881 102.967C108.923 103.054 108.962 103.152 109.007 103.236C110.331 101.508 113.622 96.2355 111.079 95.2255L113.889 92.3074C114.206 90.9516 116.74 91.7754 117.351 91.3253C116.313 93.7268 117.788 97.3876 119.871 94.2944C117.943 101.01 115.169 90.4195 113.878 96.4259L115.424 97.8992C114.85 96.4905 112.236 101.135 112.125 103.189L112.769 102.558C109.492 109.986 105.659 118.611 101.214 127.203C100.146 129.276 99.0388 131.353 97.9097 133.406C100.52 131.04 102.482 129.391 102.516 129.049L103.525 129.829C104.695 128.136 105.787 126.56 106.823 125.068C107.812 123.568 108.813 122.185 110.182 120.971L111.604 121.866C109.095 122.694 108.97 123.909 107.123 125.878C110.781 123.162 112.058 123.737 114.893 121.768C113.922 120.138 111.787 122.307 115.242 119.372C116.731 119.547 115.069 122.679 118.37 120.643C122.789 119.13 120.874 117.041 124.663 115.247L121.795 115.653C123.166 114.934 125.759 113.542 127.514 114.078C125.776 114.444 122.049 117.098 122.927 118.843C124.338 117.717 128.187 117.151 129.57 116.609L129.133 118.171C131.041 118.848 131.343 116.706 133.644 117.311C135.3 116.067 131.988 115.76 132.88 114.95C133.415 115.295 137.202 114.93 138.314 113.887C136.73 111.252 134.157 115.781 131.051 113.794L134.722 113.31C136.255 110.013 129.05 114.87 129.581 112.461C131.534 108.928 135.865 113.478 137.566 109.442C135.678 108.996 130.256 110.556 130.659 109.359C132.879 109.874 133.701 107.458 136.396 106.548L139.964 107.148C141.195 105.994 140.078 106.21 138.861 105.868C141.414 106.112 144.846 105.577 148.497 105.255C152.16 105.014 156.171 105.01 159.659 106.359C163.938 106.43 160.316 105.179 162.39 104.431C164.454 106.367 168.53 105.742 170.953 106.482C171.614 106.775 173.413 105.56 172.921 104.701C170.737 104.465 168.581 104.223 166.459 104.217C166.936 103.426 166.287 101.7 163.963 101.584C164.497 103.335 162.379 102.469 159.954 101.805C157.53 101.124 154.775 100.674 154.537 102.547L154.653 100.861C151.95 101.181 149.309 101.675 146.714 102.308L146.968 102.516C146.927 101.886 140.413 104.357 136.319 104.645C136.85 104.256 138.875 103.861 140.218 103.447C141.588 103.067 142.314 102.658 140.023 102.092C143.125 100.549 149.167 101.315 155.158 100.76L153.982 99.5998C157.213 98.7759 161.066 99.2018 164.91 100.055C168.777 101.012 172.619 102.299 176.278 103.496L173.665 104.234C176.004 105.596 178.515 107.985 181.32 107.928C178.38 106.607 180.228 106.532 181.073 106.16C185.545 107.347 190.942 111.889 195.73 116.602C195.73 116.602 195.259 116.582 195.276 116.941C196.951 118.549 198.738 120.195 200.142 122.136C201.665 125.168 201.196 126.71 201.039 128.899C201.654 129.93 202.513 132.767 203.046 131.432C202.934 130.787 202.808 130.136 202.589 129.762C205.31 132.668 202.918 132.233 204.803 136.305C202.823 133.264 202.994 137.686 201.431 137.462C202.671 142.092 204.065 137.628 204.802 138.085C204.72 141.193 204.2 142.884 203.687 144.51C203.202 146.145 202.699 147.714 202.134 150.458C203.031 150.95 203.262 146.569 204.273 146.124C203.9 147.768 203.76 149.697 204.042 150.045C204.433 148.899 204.788 147.716 205.149 146.527C203.528 152.63 201.905 157.902 199.894 164.061L200.522 163.786C199.93 164.99 199.39 166.224 198.713 167.377C198.446 166.688 198.187 166.025 197.889 165.353C197.299 167.446 194.905 168.631 195.43 170.261L195.944 169.667C195.622 170.501 195.327 171.368 194.965 172.193C195.03 171.133 195.021 170.053 195.024 169.019C193.879 170.243 193.368 172.216 192.589 174.483C191.75 176.765 190.715 179.229 188.749 181.029ZM96.0125 137.895C96.0653 137.801 96.1043 137.702 96.147 137.606C95.9814 137.816 95.6648 138.154 95.2398 138.588C95.4856 138.36 95.7443 138.129 96.0125 137.895ZM82.7393 222.323C80.8245 223.022 78.9998 223.895 77.3278 225.137C75.251 224.864 74.4312 226.252 74.1624 227.665C74.525 227.615 74.6229 227.641 74.1234 227.925C74.1097 228.015 74.093 228.109 74.0822 228.195C75.7769 228.008 80.392 227.066 79.2604 224.643L82.5037 224.925C83.3752 224.33 84.5877 226.74 85.1979 226.927C83.3306 227.546 82.583 230.886 85.3526 230.55C80.9549 233.164 84.205 224.737 80.4972 227.419L80.7997 229.44C81.0885 228.127 77.1952 229.127 76.1904 230.376L76.9063 230.44C65.7823 235.15 51.8936 243.285 40.3439 249.96C35.2337 247.194 32.4332 255.939 27.9121 253.89C26.9074 255.139 30.5471 254.451 28.3191 256.259C27.2004 257.165 26.5139 256.106 26.4065 255.762C26.0864 256.067 25.7635 256.376 25.4348 256.692C25.1463 256.344 24.9185 255.98 24.6936 255.613C22.5536 266.283 18.8138 276.051 13.5024 283.651C14.5575 281.228 15.6049 278.859 16.565 276.15C17.4444 273.423 18.1006 270.312 18.5728 266.527C16.6676 266.263 18.6661 263.435 16.7796 262.584C16.0296 266.381 17.5418 259.226 18.0916 251.811C18.4395 247.871 18.5843 243.903 18.5464 241.484C18.4013 241.318 18.2462 241.15 18.1012 240.985C18.0183 241.906 17.9303 242.841 17.8322 243.774C17.4837 247.611 16.9508 251.412 16.519 254.182C16.1606 256.964 15.8897 258.709 16.0688 258.437C14.7206 259.603 16.1165 249.072 16.5403 238.058C17.0421 227.037 16.6034 215.554 16.1148 214.983L17.3268 214.475C15.942 208.91 14.093 205.416 13.0355 200.803L14.4677 199.687C14.1074 203.123 15.1669 204.009 15.9078 207.489C15.4195 201.445 16.3107 200.306 15.7821 195.695C13.8811 195.952 15.0498 199.697 13.6817 193.943C14.4018 192.224 16.6957 195.992 16.0291 190.803C16.1845 184.473 13.4252 185.902 12.9204 180.434L12.4364 184.168C12.2269 182.157 11.574 178.415 12.4777 176.405C12.4972 178.708 13.9244 184.462 15.8227 184.179C15.2615 181.875 15.6531 176.697 15.43 174.681L16.8451 175.832C17.9619 173.531 15.9819 172.378 16.9579 169.504C16.0319 166.909 15.1318 171.227 14.4918 169.789C14.9187 169.214 15.3009 164.039 14.3323 162.31C11.5694 163.736 15.5493 168.351 13.0203 171.802L13.2112 166.906C10.236 164.02 13.7396 174.686 11.4086 173.248C8.2948 169.778 13.6879 165.472 9.82209 162.289C9.24416 164.595 9.64476 171.8 8.57853 170.944C9.46641 168.331 7.35904 166.64 6.79286 163.135L7.85482 158.794C6.87051 157.04 6.93754 158.494 6.44552 159.94C7.706 153.628 5.24439 143.006 7.31443 133.958C6.92601 128.633 6.08291 133.283 5.09721 130.843C6.84389 128.024 5.60448 123.173 5.75304 120.203C5.93286 119.331 4.36594 117.626 3.62826 118.437C3.77698 120.977 4.10766 123.497 4.35902 126.013C3.47499 125.621 1.96539 126.685 2.07296 129.399C5.37108 127.557 -0.0171297 140.045 3.79713 140.547L2.10461 140.468C2.58258 143.656 2.99596 146.887 3.55399 149.992L3.76712 149.701C3.19867 149.697 5.28562 157.626 4.88298 162.825C4.25109 161.37 4.40505 152.656 2.84442 157.866C1.65898 154.054 2.83849 147.081 1.98416 139.869L0.87979 141.299C-0.893992 133.703 1.31121 123.603 1.61465 115.131L3.00217 117.743C3.78749 114.803 5.27951 111.133 4.3014 108.223C4.0082 111.832 3.32116 109.903 2.71908 109.186C2.32923 104.199 4.14227 97.1279 4.8094 90.3449C4.8094 90.3449 5.07883 90.731 5.35577 90.4859C5.51164 88.0993 5.58036 85.6954 5.82295 83.29C6.87789 80.0331 8.0414 79.1159 9.53952 77.3632C9.57339 76.0924 10.5579 73.1414 9.32476 74.0198C9.0468 74.6393 8.76235 75.2595 8.7326 75.7058C8.1451 71.7373 9.94463 73.4046 10.2823 68.7239C10.6165 72.528 12.5462 68.2915 13.8071 69.1571C14.8965 63.9627 11.4735 67.8532 11.0541 67.0293C14.1807 61.1762 15.3728 60.7946 18.3857 54.9859C17.7381 54.2742 15.8934 58.955 14.7992 59.1066C15.7142 57.463 16.587 55.4396 16.4025 54.9857L14.0951 58.4203C16.0059 55.4729 17.6246 52.5259 19.2816 49.4732C21.1234 46.4934 22.4623 43.1876 24.3863 39.7923L23.6654 40.0632L26.3458 36.0387L26.7931 38.416C27.3176 37.2229 28.2658 36.2556 29.0374 35.3589C29.8858 34.5069 30.5505 33.7196 30.4366 32.7693L29.7512 33.4503L31.3297 30.5599L30.602 34.1905C32.1404 32.7982 33.0777 30.4759 34.2466 27.818C35.5845 25.3036 37.1657 22.4392 39.635 20.0715C42.2303 20.6295 32.0433 29.0978 34.0808 31.8046C35.6985 30.3221 38.579 27.9615 38.9299 26.4841C38.1717 26.135 37.0777 27.2814 35.9873 28.4308C37.4362 25.8459 39.9779 23.1917 42.5524 21.0168C45.1708 18.8538 47.3945 16.7805 48.1085 14.5862C46.6988 15.2791 45.4536 16.0404 44.1018 16.7865C45.9312 14.9342 48.0465 14.077 49.8221 13.4616C51.5303 12.7972 52.8177 12.4157 53.1049 11.214C52.4481 12.7819 51.8605 14.3525 51.3657 15.9629C54.742 11.6175 60.8605 8.4619 65.0975 5.56161C64.4836 3.86465 58.4632 8.71427 58.6933 8.29996L60.3047 6.11543C64.0967 4.73502 64.7956 4.92275 65.5916 4.8083C66.4001 4.75167 67.4039 4.55025 72.1146 3.54845L71.8736 2.44695C73.6793 2.79701 76.4325 1.66102 78.5897 1.05239C80.7129 0.368448 82.1179 0.237519 80.6703 1.90617C79.7466 1.76776 78.86 1.76673 77.94 1.69689L78.4226 2.97719C81.973 1.93021 85.7262 1.29255 89.6055 1.01956C88.4785 1.97239 94.0331 1.93148 92.446 3.20072C93.8548 2.88226 95.3118 2.746 96.8005 2.53426C97.5884 3.62236 95.5451 3.90082 93.3522 4.12895C91.1482 4.47314 88.7584 4.86264 88.5653 5.6048C88.7088 6.46019 90.5038 6.45016 91.4042 6.36113C86.8268 7.54297 84.4361 4.46528 79.6631 5.14839L77.6392 6.80062L77.3987 5.12775C75.5323 5.8182 74.2727 7.43145 73.8216 8.21976C68.7737 7.37472 65.1543 11.7188 59.23 14.5918C63.6264 10.9397 55.2825 14.9998 55.8942 14.241C54.5368 15.0598 52.7226 17.252 50.9475 19.2498C49.3059 21.3323 47.5973 23.1459 45.927 23.2515C44.0318 23.853 47.9528 19.8556 44.4702 22.429C42.4351 24.3877 41.9312 26.5506 43.6707 25.7747C39.7681 30.4958 34.7042 35.7071 31.1846 41.3772L31.1319 39.4224C29.5912 40.92 28.5779 42.7576 27.9456 44.5002C27.3549 46.2649 27.2673 48.0042 27.2662 49.2422C26.5957 49.5244 26.7334 49.9699 26.4523 49.086C22.2436 52.9027 25.3171 56.1074 21.7036 63.7441C23.285 63.8282 24.8677 60.435 25.326 57.6989L26.6749 59.071C29.5333 52.4278 33.5016 45.4015 35.9838 39.8935C35.7994 40.8811 35.7049 41.9119 35.5702 42.9042C37.9034 41.4501 38.0192 40.4663 38.1187 39.4514C38.213 38.4501 38.352 37.4673 40.8761 36.4664C42.5464 33.2875 38.5893 37.8928 39.6349 35.3131C41.6115 33.7117 41.5597 37.69 44.3444 34.7153C39.7354 40.8091 35.1183 47.5276 31.5613 54.9779C27.9937 62.3899 24.9481 70.1851 22.9603 77.9539C23.193 78.3339 23.5538 77.5615 23.9159 76.802C24.1588 79.7157 20.0581 91.4705 17.8741 103.41C15.5498 115.294 14.9715 127.01 17.2744 127.759C16.5643 128.551 15.8839 125.918 15.8548 129.349C16.1732 129.668 16.6051 130.549 17.3022 129.759C14.5753 138.421 17.6847 149.981 16.6456 160.565C17.4213 160.286 17.9819 162.582 18.5438 162.587C16.9222 166.306 19.282 172.348 18.4548 175.809L19.2949 174.652L19.9691 185.326C20.3245 185.621 20.248 184.171 20.3167 183.304C20.8851 185.613 19.8969 186.191 19.1276 186.47L21.3708 191.119C20.1168 198.199 20.9025 206.021 21.6166 214.202C22.2543 222.375 22.9014 230.961 21.1661 239.078C22.5929 241.657 22.9104 243.857 22.6655 248.065L23.3599 246.063C24.1916 250.493 22.5549 246.218 22.7832 249.918C22.9841 250.82 23.3214 251.196 23.6562 251.194C23.7393 250.148 24.0294 249.038 24.5792 247.836C24.5643 247.723 24.5673 247.624 24.5517 247.504C24.8507 246.705 25.0889 246.434 25.2847 246.487C26.2144 244.891 27.5225 243.174 29.3421 241.29C30.598 241.466 26.0042 243.737 28.952 243.986C37.4317 243.044 47.811 234.947 57.2955 232.756C60.0767 232.662 60.6851 232.383 62.994 231.91C62.9161 231.661 62.7642 231.365 62.5394 231.158C64.8709 230.072 68.3577 227.764 70.9857 227.265C71.4866 226.642 71.3991 225.308 70.2928 226.206C73.2688 223.465 77.3249 225.141 78.8341 223.272C76.7811 223.423 79.9793 221.375 77.6696 221.842C79.798 220.632 81.2486 221.586 82.7393 222.323ZM18.632 229.093C18.6657 229.454 18.6799 230.074 18.6738 230.879C18.6964 230.426 18.7206 229.958 18.7441 229.483C18.7106 229.348 18.6677 229.218 18.632 229.093ZM18.5456 241.156C18.5119 239.77 18.4124 238.992 18.2513 239.183C18.2255 239.507 18.2033 239.835 18.1716 240.166C18.3037 240.494 18.4264 240.826 18.5456 241.156ZM85.9831 222.802C85.9942 222.525 85.9935 222.262 85.7827 222.192C87.3096 222.065 88.975 221.175 90.5483 220.252C87.8165 220.828 85.1955 221.428 82.7429 222.326C83.7322 222.816 84.741 223.208 85.9831 222.802Z" fill="#FFFFFE"/>
</svg>
