<svg width="25" height="26" viewBox="0 0 25 26" fill="none" xmlns="http://www.w3.org/2000/svg">
    <path d="M12.302 6.254c-3.49 0-6.306 2.939-6.306 6.582s2.816 6.582 6.306 6.582 6.305-2.939 6.305-6.582-2.815-6.582-6.305-6.582zm0 10.861c-2.256 0-4.1-1.919-4.1-4.279s1.839-4.28 4.1-4.28c2.26 0 4.099 1.92 4.099 4.28 0 2.36-1.844 4.28-4.1 4.28zm8.033-11.13c0 .853-.658 1.535-1.47 1.535-.818 0-1.471-.687-1.471-1.535 0-.848.659-1.535 1.47-1.535.813 0 1.471.687 1.471 1.535zm4.176 1.558c-.093-2.057-.543-3.878-1.986-5.38C21.087.664 19.342.194 17.372.09c-2.03-.12-8.116-.12-10.146 0-1.965.098-3.71.567-5.153 2.068C.63 3.66.185 5.481.086 7.538c-.115 2.119-.115 8.472 0 10.591.094 2.057.544 3.878 1.987 5.38 1.443 1.5 3.183 1.97 5.153 2.073 2.03.12 8.116.12 10.146 0 1.97-.097 3.715-.567 5.153-2.074 1.438-1.5 1.888-3.322 1.986-5.379.116-2.12.116-8.466 0-10.586zm-2.623 12.86c-.428 1.123-1.256 1.988-2.337 2.44-1.62.671-5.46.516-7.25.516-1.788 0-5.635.15-7.248-.515-1.076-.447-1.905-1.312-2.338-2.44-.642-1.69-.494-5.7-.494-7.568 0-1.867-.143-5.883.494-7.567.428-1.123 1.257-1.988 2.338-2.44 1.618-.67 5.46-.516 7.249-.516 1.789 0 5.635-.15 7.249.515 1.075.447 1.904 1.312 2.337 2.44.642 1.69.494 5.7.494 7.568 0 1.868.148 5.883-.494 7.568z" fill="#84786C"/>
</svg>
