<svg width="27" height="17" viewBox="0 0 27 17" fill="none" xmlns="http://www.w3.org/2000/svg">
    <path d="M25.677 1.105c.18-.637 0-1.105-.869-1.105h-2.873c-.731 0-1.068.402-1.248.85 0 0-1.464 3.723-3.532 6.136-.668.698-.975.922-1.341.922-.18 0-.459-.224-.459-.86V1.104c0-.764-.205-1.105-.81-1.105H10.03a.706.706 0 0 0-.732.687c0 .723 1.034.892 1.141 2.928v4.42c0 .968-.165 1.146-.531 1.146-.976 0-3.346-3.738-4.751-8.015C4.873.336 4.595 0 3.858 0H.985C.165 0 0 .402 0 .85c0 .795.976 4.741 4.541 9.955 2.376 3.56 5.722 5.49 8.766 5.49 1.829 0 2.053-.428 2.053-1.167 0-3.401-.166-3.722.751-3.722.425 0 1.156.224 2.863 1.94 1.952 2.037 2.274 2.948 3.366 2.948h2.873c.82 0 1.234-.427.995-1.273-.546-1.777-4.238-5.433-4.404-5.677-.425-.57-.303-.825 0-1.334.005-.005 3.512-5.158 3.873-6.905z" fill="#84786C"/>
</svg>
